<svg xmlns="http://www.w3.org/2000/svg" xmlns:xlink="http://www.w3.org/1999/xlink" fill="none" version="1.1" width="710" height="145" viewBox="0 0 710 145"><g style="mix-blend-mode:passthrough"><g style="mix-blend-mode:passthrough"><g style="mix-blend-mode:passthrough"><path d="M203.61328,36.3906Q203.32617,36.5371,202.00781,37.0645L202.00781,42.3789Q202.00781,43.363299999999995,201.62695,43.7441Q201.25195,44.125,200.19141,44.125Q199.59961,44.125,198.966797,44.0078L198.697266,42.5312Q199.27148,42.8652,200.00977,42.8652Q200.42578,42.8652,200.54883,42.7305Q200.67773,42.5898,200.67773,42.185500000000005L200.67773,37.5508L198.767578,38.2422L198.480469,36.8359L200.67773,36.0742L200.67773,32.72852L198.75,32.72852L198.75,31.33398L200.67773,31.33398L200.67773,27.99414L202.00781,27.99414L202.00781,31.33398L203.63086,31.33398L203.63086,32.72852L202.00781,32.72852L202.00781,35.5879Q202.98047,35.2539,203.61328,34.99023L203.61328,36.3906ZM205.72266,32.875L205.72266,34.75586Q205.72266,36.959,205.59375,38.4766Q205.4707,39.9941,205.08398,41.412099999999995Q204.69727,42.824200000000005,203.94141,44.376999999999995L202.69336,43.5332Q203.43164,42.162099999999995,203.7832,40.9434Q204.14062,39.7246,204.25781,38.3301Q204.375,36.9297,204.375,34.67383L204.375,28.75L214.2129,28.75L214.2129,32.875L205.72266,32.875ZM212.8594,31.72656L212.8594,29.95703L205.72266,29.95703L205.72266,31.72656L212.8594,31.72656ZM210.9375,42.625L214.9512,42.625L214.9512,43.7559L205.70508,43.7559L205.70508,42.625L209.5664,42.625L209.5664,40.7617L206.50781,40.7617L206.50781,39.625L209.5664,39.625L209.5664,38.2012Q208.2363,38.2715,207.60352,38.248Q206.70703,38.3008,206.32617,38.3652L206.14453,37.4102Q206.57227,37.293,206.88867,37.0176Q207.65039,36.2676,208.5059,35.1367L206.27344,35.1367L206.27344,34L214.5,34L214.5,35.1367L210.0176,35.1367Q209.0566,36.3848,208.1602,37.3164L212.373,37.0645L212.0859,36.5781Q211.7812,36.0332,211.5645,35.7344L212.5898,35.1367Q212.9531,35.6406,213.4277,36.4375Q213.9082,37.2344,214.0312,37.4512L214.5879,38.3652L213.5449,38.9395L212.9648,38.0898L210.9375,38.1426L210.9375,39.625L214.1191,39.625L214.1191,40.7617L210.9375,40.7617L210.9375,42.625ZM233.25,37.75L233.25,39.1152L226.10739999999998,39.1152L226.10739999999998,41.9043Q226.10739999999998,42.7656,225.9316,43.2402Q225.7617,43.7148,225.3457,43.9199Q224.9355,44.125,224.1797,44.125Q222.95510000000002,44.125,221.7129,44.0137L221.4082,42.5781Q222.91989999999998,42.7539,223.6758,42.7539Q224.1797,42.7539,224.3789,42.449200000000005Q224.5781,42.1445,224.5781,41.412099999999995L224.5781,39.1152L217.125,39.1152L217.125,37.75L224.5781,37.75L224.5781,35.0312L218.38479999999998,35.0312L218.38479999999998,33.625L224.5781,33.625L224.5781,30.52539Q221.2441,30.74219,218.2031,30.84766L218.08010000000002,29.48242Q220.7754,29.41211,224.8418,29.11328Q228.9082,28.81445,231.791,28.47461L232.0078,29.88086Q229.8867,30.13281,226.10739999999998,30.41992L226.10739999999998,33.625L231.99020000000002,33.625L231.99020000000002,35.0312L226.10739999999998,35.0312L226.10739999999998,37.75L233.25,37.75Z" fill="#DDDDDD" fill-opacity="1"/></g><path d="M150,17L150,9L151.5,9L151.5,17L150,17ZM150,29L150,21L151.5,21L151.5,29L150,29ZM150,41L150,33L151.5,33L151.5,41L150,41ZM150,53L150,45L151.5,45L151.5,53L150,53ZM150,65L150,57L151.5,57L151.5,65L150,65ZM166,73L158,73L158,71.5L166,71.5L166,73ZM178,73L170,73L170,71.5L178,71.5L178,73ZM190,73L182,73L182,71.5L190,71.5L190,73ZM202,73L194,73L194,71.5L202,71.5L202,73ZM214,73L206,73L206,71.5L214,71.5L214,73ZM226,73L218,73L218,71.5L226,71.5L226,73ZM238,73L230,73L230,71.5L238,71.5L238,73ZM250,73L242,73L242,71.5L250,71.5L250,73ZM262,73L254,73L254,71.5L262,71.5L262,73ZM274,73L266,73L266,71.5L274,71.5L274,73ZM282,57L282,65L280.5,65L280.5,57L282,57ZM282,45L282,53L280.5,53L280.5,45L282,45ZM282,33L282,41L280.5,41L280.5,33L282,33ZM282,21L282,29L280.5,29L280.5,21L282,21ZM282,9L282,17L280.5,17L280.5,9L282,9ZM266,1L274,1L274,2.5L266,2.5L266,1ZM254,1L262,1L262,2.5L254,2.5L254,1ZM242,1L250,1L250,2.5L242,2.5L242,1ZM230,1L238,1L238,2.5L230,2.5L230,1ZM218,1L226,1L226,2.5L218,2.5L218,1ZM206,1L214,1L214,2.5L206,2.5L206,1ZM194,1L202,1L202,2.5L194,2.5L194,1ZM182,1L190,1L190,2.5L182,2.5L182,1ZM170,1L178,1L178,2.5L170,2.5L170,1ZM158,1L166,1L166,2.5L158,2.5L158,1ZM154,1L154,2.5L151.5,2.5L151.5,5L150,5L150,1L154,1ZM278,1L282,1L282,5L280.5,5L280.5,2.5L278,2.5L278,1ZM282,69L282,73L278,73L278,71.5L280.5,71.5L280.5,69L282,69ZM154,73L150,73L150,69L151.5,69L151.5,71.5L154,71.5L154,73Z" fill-rule="evenodd" fill="#DDDDDD" fill-opacity="1"/></g><g style="mix-blend-mode:passthrough"><g style="mix-blend-mode:passthrough"><path d="M338.48047,31.41016Q339.2715,30.56641,339.7988,29.74023Q340.332,28.91406,340.8008,27.92383L341.9375,28.23438Q341.6504,28.93164,341.2871,29.54688L345.9629,29.54688L345.9629,30.57227L344.7383,30.57227Q344.4336,31.47461,344.0645,32.16016Q343.6953,32.83984,343.1738,33.38477Q344.252,33.99414,346.1328,34.50977L345.5469,35.6055Q343.502,34.97852,342.2246,34.19336Q341.1113,34.93164,339.1309,35.5293L338.5332,34.43359Q340.332,33.93555,341.2344,33.41992Q340.4082,32.61719,339.8457,31.47461Q339.5586,31.86719,339.1484,32.33008L338.48047,31.41016ZM333.6582,30.48438L332.45117,30.48438L332.45117,29.98047L330.05469,29.98047L330.05469,29.04297L332.45117,29.04297L332.45117,28L333.6582,28L333.6582,29.04297L335.70898,29.04297L335.70898,28L336.93359,28L336.93359,29.04297L339.2012,29.04297L339.2012,29.98047L336.93359,29.98047L336.93359,30.58984L335.70898,30.58984L335.70898,29.98047L333.6582,29.98047L333.6582,30.48438ZM331.80078,31.75Q330.97461,32.86914,330.03711,33.58984L329.568359,32.64648Q330.88086,31.54492,331.61914,30.37891L332.57422,30.67773L332.39844,30.94141L338.31641,30.94141Q338.31641,32.36523,338.17578,34.07617Q338.10547,34.89648,337.75391,35.1836Q337.40234,35.4648,336.48242,35.5234Q336.10742,35.541,335.62109,35.4824L335.43945,34.63867Q335.85547,34.69141,336.17773,34.69141Q336.6582,34.69141,336.81641,34.5625Q336.98047,34.42773,337.0332,33.92969Q337.16211,32.81055,337.17969,31.75L331.80078,31.75ZM340.6191,30.57227L340.5605,30.66016Q341.1406,31.9375,342.166,32.75195Q342.6172,32.33594,342.9277,31.80859Q343.2441,31.28125,343.4785,30.57227L340.6191,30.57227ZM335.31055,32.5L335.31055,34.91406L331.60156,34.91406L331.60156,32.5L335.31055,32.5ZM334.32031,33.2207L332.60938,33.2207L332.60938,34.19336L334.32031,34.19336L334.32031,33.2207ZM338.55078,35.2832Q338.7207,35.5879,339.0957,36.25L346.0918,36.25L346.0918,37.1875L329.75,37.1875L329.75,36.25L337.61328,36.25Q337.43164,35.9102,337.19727,35.6055L338.55078,35.2832ZM331.98242,38.0664L343.8945,38.0664L343.8945,38.875L331.98242,38.875L331.98242,38.0664ZM343.8945,40.375L331.98242,40.375L331.98242,39.4961L343.8945,39.4961L343.8945,40.375ZM333.04297,44.125L331.76562,44.125L331.76562,41.0664L344.1113,41.0664L344.1113,44.101600000000005L342.834,44.101600000000005L342.834,43.773399999999995L333.04297,43.773399999999995L333.04297,44.125ZM342.834,42.8945L342.834,41.875L333.04297,41.875L333.04297,42.8945L342.834,42.8945ZM357.125,34.47461L364.1445,34.47461L364.1445,35.875L348.125,35.875L348.125,34.47461L355.6309,34.47461L355.6309,31.75L351.4355,31.75Q350.8262,32.91602,350.1406,33.87109L348.8633,33.00977Q349.8008,31.77344,350.3926,30.6543Q350.9844,29.5293,351.418,28.20508L352.7715,28.69141Q352.4609,29.61133,352.1211,30.36719L355.6309,30.36719L355.6309,27.90039L357.125,27.90039L357.125,30.36719L363.0664,30.36719L363.0664,31.75L357.125,31.75L357.125,34.47461ZM351.6172,44.125L350.1406,44.125L350.1406,37.75L362.0762,37.75L362.0762,44.125L360.582,44.125L360.582,43.375L351.6172,43.375L351.6172,44.125ZM360.582,41.9863L360.582,39.1504L351.6172,39.1504L351.6172,41.9863L360.582,41.9863Z" fill="#DDDDDD" fill-opacity="1"/></g><path d="M281,1L285,1L285,2.5L281,2.5M289,1L297,1L297,2.5L289,2.5M301,1L309,1L309,2.5L301,2.5M313,1L321,1L321,2.5L313,2.5M325,1L333,1L333,2.5L325,2.5M337,1L345,1L345,2.5L337,2.5M349,1L357,1L357,2.5L349,2.5M361,1L369,1L369,2.5L361,2.5M373,1L381,1L381,2.5L373,2.5M385,1L393,1L393,2.5L385,2.5M397,1L405,1L405,2.5L397,2.5M409,1L413,1L413,2.5L409,2.5M413,1L413,5L411.5,5L411.5,1M413,9L413,17L411.5,17L411.5,9M413,21L413,29L411.5,29L411.5,21M413,33L413,41L411.5,41L411.5,33M413,45L413,53L411.5,53L411.5,45M413,57L413,65L411.5,65L411.5,57M413,69L413,73L411.5,73L411.5,69M413,73L409,73L409,71.5L413,71.5M405,73L397,73L397,71.5L405,71.5M393,73L385,73L385,71.5L393,71.5M381,73L373,73L373,71.5L381,71.5M369,73L361,73L361,71.5L369,71.5M357,73L349,73L349,71.5L357,71.5M345,73L337,73L337,71.5L345,71.5M333,73L325,73L325,71.5L333,71.5M321,73L313,73L313,71.5L321,71.5M309,73L301,73L301,71.5L309,71.5M297,73L289,73L289,71.5L297,71.5M285,73L281,73L281,71.5L285,71.5" fill="#DDDDDD" fill-opacity="1"/></g><g style="mix-blend-mode:passthrough"><g style="mix-blend-mode:passthrough"><path d="M476.7461,29.875L476.7461,31.29883L463.75,31.29883L463.75,34.83789Q463.75,36.9766,463.63281,38.4473Q463.51562,39.918,463.14648,41.3652Q462.77734,42.8125,462.02148,44.3711L460.726562,43.5977Q461.42969,42.1797,461.78125,40.8496Q462.13281,39.5195,462.23828,38.1836Q462.34961,36.8418,462.34961,34.88477L462.34961,29.875L468.98828,29.875Q468.61328,28.88477,468.32617,28.25781L469.76172,27.8418Q470.248,28.86719,470.6113,29.875L476.7461,29.875ZM470.1777,39.7012Q469.97852,38.0898,469.55664,36.0859Q469.13477,34.08203,468.75391,32.96875L470.1426,32.69922Q470.4824,33.76562,470.916,35.7578Q471.3496,37.75,471.584,39.3438L470.1777,39.7012ZM476.9277,42.25L476.9277,43.6328L463.87891,43.6328L463.87891,42.25L471.2734,42.25Q472.2461,40.293,473.1074,37.6973Q473.9746,35.1016,474.3906,33.00391L475.791,33.37891Q475.416,35.1895,474.5488,37.7441Q473.6875,40.293,472.7852,42.25L476.9277,42.25ZM466.91992,40.7266Q466.52148,39.0391,465.85352,36.9297Q465.19141,34.82031,464.66992,33.68945L465.94727,33.29102Q466.46875,34.45703,467.16016,36.543Q467.85742,38.623,468.23242,40.2754L466.91992,40.7266ZM480.625,28.82617L494.0605,28.82617L494.0605,42.0332Q494.0605,43.2051,493.6328,43.6445Q493.2051,44.0898,492.1504,44.125Q491.0664,44.166,489.9238,44.0195L489.666,42.537099999999995Q491.0254,42.724599999999995,491.6699,42.724599999999995Q492.2559,42.724599999999995,492.4375,42.4727Q492.625,42.2207,492.625,41.4941L492.625,38.875L488.0488,38.875L488.0488,44.125L486.625,44.125L486.625,38.875L482.0312,38.875Q481.9023,40.3867,481.5156,41.664100000000005Q481.1289,42.9414,480.3379,44.523399999999995L479.0078,43.949200000000005Q479.7285,42.537099999999995,480.0566,41.5703Q480.3906,40.6035,480.5078,39.4551Q480.625,38.3008,480.625,36.2441L480.625,28.82617ZM486.625,33.25L486.625,30.25L482.1016,30.25L482.1016,33.25L486.625,33.25ZM488.0488,33.25L492.625,33.25L492.625,30.25L488.0488,30.25L488.0488,33.25ZM482.1016,37.4688L486.625,37.4688L486.625,34.65625L482.1016,34.65625L482.1016,36.666L482.1016,37.4688ZM488.0488,34.65625L488.0488,37.4688L492.625,37.4688L492.625,34.65625L488.0488,34.65625ZM509.6406,39.7422Q510.8828,41.5586,513.1152,43.287099999999995L512.2188,44.4941Q510.127,42.800799999999995,508.8496,40.9844Q507.6777,42.636700000000005,505.5918,44.418L504.6895,43.2344Q506.8691,41.4707,508.041,39.666Q506.9043,37.5156,506.3125,34.5332Q506.1836,34.78516,506.0664,34.97852Q505.9492,35.166,505.8789,35.2891L504.8887,34.20508Q505.75,32.81641,506.418,31.16406Q507.0859,29.51172,507.4258,27.89453L508.7793,28.12305Q508.52729999999997,29.32422,508.0059,30.8418L512.8281,30.8418L512.8281,32.2832L511.5684,32.2832Q511.334,34.73828,510.8828,36.5195Q510.4316,38.3008,509.6406,39.7422ZM496.6211,35.9277Q497.5586,35.3594,498.4141,34.58008Q499.2695,33.80078,499.9199,32.91016L497.0723,32.91016L497.0723,31.72656L500.6406,31.72656L500.6406,28L501.918,28L501.918,31.72656L505.0703,31.72656L505.0703,32.91016L501.918,32.91016L501.918,33.16211L504.9414,35.2129L504.2734,36.209Q503.3242,35.418,501.918,34.47461L501.918,36.3145L500.6406,36.3145L500.6406,33.70117Q500.0078,34.63281,499.15229999999997,35.4883Q498.2969,36.3438,497.3242,37L496.6211,35.9277ZM498.9121,31.4043Q498.3848,30.51953,497.3066,29.00781L498.209,28.39844L499.8848,30.77148L498.9121,31.4043ZM505.3047,29.04297Q504.4902,30.23242,503.53520000000003,31.49219L502.6035,30.82422Q503.6113,29.49414,504.332,28.41602L505.3047,29.04297ZM507.2324,32.72852Q507.502,34.46289,507.8652,35.8047Q508.2344,37.1465,508.7969,38.3008Q509.3535,37.0938,509.7051,35.6289Q510.0625,34.16406,510.2559,32.2832L507.4258,32.2832L507.2324,32.72852ZM504.1152,43.574200000000005Q503.2891,43.0527,501.8828,42.332Q500.2246,43.4688,497.1074,44.459L496.5156,43.2344Q499.1289,42.4785,500.5527,41.7051Q499.2168,41.0898,498.584,40.8203L497.8633,40.498Q498.4551,39.543,498.8008,38.875L496.75,38.875L496.75,37.709L499.3984,37.709Q499.7734,36.7715,499.8848,36.4492L501.21479999999997,36.8125Q500.998,37.4219,500.875,37.709L504.6719,37.709L504.6719,38.8223Q503.9688,40.4219,502.9609,41.435500000000005Q503.793,41.8281,504.8008,42.4199L504.1152,43.574200000000005ZM499.7031,40.0117Q500.0254,40.1523,500.9629,40.5332L501.7715,40.873Q502.6738,40.1172,503.2129,38.875L500.3184,38.875Q499.9199,39.6309,499.7031,40.0117ZM520.3398,36.3203L518.6172,37.0469L518.6172,42.226600000000005Q518.6172,43.0059,518.4238,43.4043Q518.2363,43.8027,517.7852,43.960899999999995Q517.3398,44.125,516.4961,44.125Q516.1328,44.125,515.377,44.0488L515.1426,42.7188Q515.7344,42.824200000000005,516.3438,42.824200000000005Q516.8652,42.824200000000005,517.0527,42.6074Q517.2461,42.3848,517.2461,41.775400000000005L517.2461,37.5684L515.0723,38.377L514.7676,37.0293Q515.8457,36.6777,517.2461,36.1562L517.2461,32.61133L515.125,32.61133L515.125,31.31055L517.2461,31.31055L517.2461,28.12305L518.6172,28.12305L518.6172,31.31055L520.2344,31.31055L520.2344,32.61133L518.6172,32.61133L518.6172,35.5996Q519.6895,35.0957,520.0879,34.88477L520.3398,36.3203ZM531.2441,36.625L527.3534999999999,36.625L527.3534999999999,38.4121L530.125,38.4121L530.125,44.125L528.7773,44.125L528.7773,43.439499999999995L524.3477,43.439499999999995L524.3477,44.1426L523,44.1426L523,38.4121L526,38.4121L526,36.625L522.2617,36.625Q522.1738,39.1152,521.7871,40.7734Q521.4062,42.4316,520.5508,44.125L519.2441,43.4922Q520.0117,42.0977,520.4043,40.8672Q520.8027,39.6309,520.9609,38.0781Q521.125,36.5254,521.125,34.09375L521.125,29.00781L530.4355,29.00781L530.4355,33.36719L527.3534999999999,33.36719L527.3534999999999,35.4004L531.2441,35.4004L531.2441,36.625ZM529.0469,32.125L529.0469,30.25L522.4902,30.25L522.4902,32.125L529.0469,32.125ZM522.4902,35.4004L526,35.4004L526,33.36719L522.4902,33.36719L522.4902,34.23438L522.4902,35.4004ZM524.3477,42.25L528.7773,42.25L528.7773,39.6367L524.3477,39.6367L524.3477,42.25Z" fill="#DDDDDD" fill-opacity="1"/></g><path d="M412,1L416,1L416,2.5L412,2.5M420,1L428,1L428,2.5L420,2.5M432,1L440,1L440,2.5L432,2.5M444,1L452,1L452,2.5L444,2.5M456,1L464,1L464,2.5L456,2.5M468,1L476,1L476,2.5L468,2.5M480,1L488,1L488,2.5L480,2.5M492,1L500,1L500,2.5L492,2.5M504,1L512,1L512,2.5L504,2.5M516,1L524,1L524,2.5L516,2.5M528,1L536,1L536,2.5L528,2.5M540,1L548,1L548,2.5L540,2.5M552,1L560,1L560,2.5L552,2.5M564,1L572,1L572,2.5L564,2.5M576,1L580,1L580,2.5L576,2.5M580,1L580,5L578.5,5L578.5,1M580,9L580,17L578.5,17L578.5,9M580,21L580,29L578.5,29L578.5,21M580,33L580,41L578.5,41L578.5,33M580,45L580,53L578.5,53L578.5,45M580,57L580,65L578.5,65L578.5,57M580,69L580,73L578.5,73L578.5,69M580,73L576,73L576,71.5L580,71.5M572,73L564,73L564,71.5L572,71.5M560,73L552,73L552,71.5L560,71.5M548,73L540,73L540,71.5L548,71.5M536,73L528,73L528,71.5L536,71.5M524,73L516,73L516,71.5L524,71.5M512,73L504,73L504,71.5L512,71.5M500,73L492,73L492,71.5L500,71.5M488,73L480,73L480,71.5L488,71.5M476,73L468,73L468,71.5L476,71.5M464,73L456,73L456,71.5L464,71.5M452,73L444,73L444,71.5L452,71.5M440,73L432,73L432,71.5L440,71.5M428,73L420,73L420,71.5L428,71.5M416,73L412,73L412,71.5L416,71.5" fill="#DDDDDD" fill-opacity="1"/></g><g style="mix-blend-mode:passthrough"><g style="mix-blend-mode:passthrough"><path d="M629.18164,43.1875Q628.79492,43.1875,628.51953,42.8535Q628.25,42.5137,628.25,42.0684Q628.25,41.5938,628.51953,41.2656Q628.79492,40.9375,629.18164,40.9375Q629.58008,40.9375,629.84961,41.2656Q630.125,41.5938,630.125,42.0684Q630.125,42.5312,629.84961,42.8594Q629.58008,43.1875,629.18164,43.1875ZM635.18164,43.1875Q634.79492,43.1875,634.51953,42.8535Q634.25,42.5137,634.25,42.0684Q634.25,41.5938,634.51953,41.2656Q634.79492,40.9375,635.18164,40.9375Q635.58008,40.9375,635.84961,41.2656Q636.125,41.5938,636.125,42.0684Q636.125,42.5312,635.84961,42.8594Q635.58008,43.1875,635.18164,43.1875ZM641.1816,43.1875Q640.7949,43.1875,640.5195,42.8535Q640.25,42.5137,640.25,42.0684Q640.25,41.5938,640.5195,41.2656Q640.7949,40.9375,641.1816,40.9375Q641.5801,40.9375,641.8496,41.2656Q642.125,41.5938,642.125,42.0684Q642.125,42.5312,641.8496,42.8594Q641.5801,43.1875,641.1816,43.1875ZM646.8066,43.1875Q646.4199,43.1875,646.1445,42.8535Q645.875,42.5137,645.875,42.0684Q645.875,41.5938,646.1445,41.2656Q646.4199,40.9375,646.8066,40.9375Q647.2051,40.9375,647.4746,41.2656Q647.75,41.5938,647.75,42.0684Q647.75,42.5312,647.4746,42.8594Q647.2051,43.1875,646.8066,43.1875ZM652.8066,43.1875Q652.4199,43.1875,652.1445,42.8535Q651.875,42.5137,651.875,42.0684Q651.875,41.5938,652.1445,41.2656Q652.4199,40.9375,652.8066,40.9375Q653.2051,40.9375,653.4746,41.2656Q653.75,41.5938,653.75,42.0684Q653.75,42.5312,653.4746,42.8594Q653.2051,43.1875,652.8066,43.1875ZM658.8066,43.1875Q658.4199,43.1875,658.1445,42.8535Q657.875,42.5137,657.875,42.0684Q657.875,41.5938,658.1445,41.2656Q658.4199,40.9375,658.8066,40.9375Q659.2051,40.9375,659.4746,41.2656Q659.75,41.5938,659.75,42.0684Q659.75,42.5312,659.4746,42.8594Q659.2051,43.1875,658.8066,43.1875Z" fill="#DDDDDD" fill-opacity="1"/></g><path d="M578,1L582,1L582,2.5L578,2.5M586,1L594,1L594,2.5L586,2.5M598,1L606,1L606,2.5L598,2.5M610,1L618,1L618,2.5L610,2.5M622,1L630,1L630,2.5L622,2.5M634,1L642,1L642,2.5L634,2.5M646,1L654,1L654,2.5L646,2.5M658,1L666,1L666,2.5L658,2.5M670,1L678,1L678,2.5L670,2.5M682,1L690,1L690,2.5L682,2.5M694,1L702,1L702,2.5L694,2.5M706,1L710,1L710,2.5L706,2.5M710,1L710,5L708.5,5L708.5,1M710,9L710,17L708.5,17L708.5,9M710,21L710,29L708.5,29L708.5,21M710,33L710,41L708.5,41L708.5,33M710,45L710,53L708.5,53L708.5,45M710,57L710,65L708.5,65L708.5,57M710,69L710,73L708.5,73L708.5,69M710,73L706,73L706,71.5L710,71.5M702,73L694,73L694,71.5L702,71.5M690,73L682,73L682,71.5L690,71.5M678,73L670,73L670,71.5L678,71.5M666,73L658,73L658,71.5L666,71.5M654,73L646,73L646,71.5L654,71.5M642,73L634,73L634,71.5L642,71.5M630,73L622,73L622,71.5L630,71.5M618,73L610,73L610,71.5L618,71.5M606,73L598,73L598,71.5L606,71.5M594,73L586,73L586,71.5L594,71.5M582,73L578,73L578,71.5L582,71.5" fill="#DDDDDD" fill-opacity="1"/></g><g style="mix-blend-mode:passthrough"><g style="mix-blend-mode:passthrough"><path d="M415.13477,99.31641Q415.79688,99.96094,416.64648,100.88086Q417.49609,101.80078,417.99414,102.45703L416.95703,103.40039Q416.43555,102.71484,415.55078,101.74805Q414.67188,100.78125,414.09766,100.25391L415.13477,99.31641ZM419.35352,100.125L428.0781,100.125L428.0781,106.8457L421.375,106.8457L421.375,112.0195Q421.375,112.6992,421.50391,113.0098Q421.63281,113.3145,421.96094,113.4258Q422.2891,113.5312,423.0098,113.5957Q423.7715,113.6484,424.5098,113.6484Q425.2715,113.6484,425.9922,113.5957Q426.7363,113.5312,427.0527,113.4258Q427.3691,113.3145,427.4805,113.0449Q427.5918,112.7754,427.6504,112.1074Q427.6855,111.627,427.709,110.959Q427.7383,110.291,427.7383,109.8105L429.2148,110.1445Q429.1797,111.375,429.0859,112.623Q429.0098,113.6367,428.8105,114.0938Q428.6113,114.5566,428.1191,114.7559Q427.6328,114.9551,426.5664,115.0488Q425.6641,115.125,424.5039,115.125Q423.3789,115.125,422.4414,115.0547Q421.38086,114.9844,420.86523,114.7617Q420.35547,114.5391,420.13281,114.0234Q419.91602,113.5137,419.91602,112.4648L419.91602,105.375L426.625,105.375L426.625,101.54883L419.35352,101.54883L419.35352,100.125ZM413.00195,104.57227L416.78125,104.57227L416.78125,112.3301Q418.59766,110.8828,418.89648,110.5898L419.30078,112.1484Q419.17188,112.2188,418.85547,112.4941Q416.78711,114.0703,416.50586,114.3281Q416.14844,114.5859,415.73828,115.0547L414.85352,113.9004Q415.19336,113.5723,415.28125,113.3672Q415.375,113.1621,415.375,112.7988L415.375,105.86133L413.00195,105.86133L413.00195,104.57227ZM442.1934,110.625Q444.0449,112.1309,447.1035,113.2734L446.3711,114.6562Q443.8105,113.4902,442.2637,112.3535Q440.7168,111.2168,439.6562,109.6758L439.6562,113.1152Q439.6562,113.959,439.4453,114.3867Q439.2402,114.8145,438.7598,114.9668Q438.2852,115.125,437.4062,115.125Q436.791,115.125,435.7832,115.0137L435.5312,113.5781Q436.5039,113.7363,437.4766,113.7363Q437.9277,113.7363,438.0859,113.543Q438.25,113.3438,438.25,112.8047L438.25,110.3203L437.582,110.7363Q434.0547,113.0039,431.6465,114.2754L430.9785,113.0215Q433.0117,112.002,434.9746,110.8828Q436.9375,109.7637,438.25,108.873L438.25,106.5645L431.125,106.5645L431.125,105.28711L442.8965,105.28711L442.8965,103.875L433.4102,103.875L433.4102,102.63281L442.8965,102.63281L442.8965,100.95117L432.9062,100.95117L432.9062,99.65625L444.3203,99.65625L444.3203,105.28711L446.9277,105.28711L446.9277,106.5645L439.6562,106.5645L439.6562,107.5312Q440.3359,108.7617,441.2207,109.7109Q443.0605,108.334,444.3555,106.834L445.3984,107.8711Q443.9043,109.3477,442.1934,110.625ZM433.2285,107.0625Q434.6699,107.9648,436.0527,109.1426L435.2266,110.2148Q433.4805,108.75,432.4551,108.1055L433.2285,107.0625Z" fill="#DDDDDD" fill-opacity="1"/></g><path d="M710,72L710,76L708.5,76L708.5,72M710,80L710,88L708.5,88L708.5,80M710,92L710,100L708.5,100L708.5,92M710,104L710,112L708.5,112L708.5,104M710,116L710,124L708.5,124L708.5,116M710,128L710,136L708.5,136L708.5,128M710,140L710,144L708.5,144L708.5,140M710,144L706.028,144L706.028,142.5L710,142.5M702.057,144L694.113,144L694.113,142.5L702.057,142.5M690.142,144L682.199,144L682.199,142.5L690.142,142.5M678.227,144L670.284,144L670.284,142.5L678.227,142.5M666.312,144L658.369,144L658.369,142.5L666.312,142.5M654.3969999999999,144L646.454,144L646.454,142.5L654.3969999999999,142.5M642.482,144L634.539,144L634.539,142.5L642.482,142.5M630.567,144L622.624,144L622.624,142.5L630.567,142.5M618.652,144L610.7090000000001,144L610.7090000000001,142.5L618.652,142.5M606.738,144L598.794,144L598.794,142.5L606.738,142.5M594.823,144L586.879,144L586.879,142.5L594.823,142.5M582.908,144L574.9649999999999,144L574.9649999999999,142.5L582.908,142.5M570.9929999999999,144L563.05,144L563.05,142.5L570.9929999999999,142.5M559.078,144L551.135,144L551.135,142.5L559.078,142.5M547.163,144L539.22,144L539.22,142.5L547.163,142.5M535.248,144L527.3050000000001,144L527.3050000000001,142.5L535.248,142.5M523.3330000000001,144L515.39,144L515.39,142.5L523.3330000000001,142.5M511.418,144L503.475,144L503.475,142.5L511.418,142.5M499.504,144L491.56,144L491.56,142.5L499.504,142.5M487.589,144L479.645,144L479.645,142.5L487.589,142.5M475.674,144L467.73,144L467.73,142.5L475.674,142.5M463.759,144L455.816,144L455.816,142.5L463.759,142.5M451.844,144L443.901,144L443.901,142.5L451.844,142.5M439.929,144L431.986,144L431.986,142.5L439.929,142.5M428.014,144L420.071,144L420.071,142.5L428.014,142.5M416.099,144L408.156,144L408.156,142.5L416.099,142.5M404.18399999999997,144L396.241,144L396.241,142.5L404.18399999999997,142.5M392.27,144L384.326,144L384.326,142.5L392.27,142.5M380.355,144L372.411,144L372.411,142.5L380.355,142.5M368.44,144L360.496,144L360.496,142.5L368.44,142.5M356.525,144L348.582,144L348.582,142.5L356.525,142.5M344.61,144L336.66700000000003,144L336.66700000000003,142.5L344.61,142.5M332.695,144L324.752,144L324.752,142.5L332.695,142.5M320.78,144L312.837,144L312.837,142.5L320.78,142.5M308.865,144L300.922,144L300.922,142.5L308.865,142.5M296.95,144L289.007,144L289.007,142.5L296.95,142.5M285.03499999999997,144L277.092,144L277.092,142.5L285.03499999999997,142.5M273.121,144L265.177,144L265.177,142.5L273.121,142.5M261.206,144L253.262,144L253.262,142.5L261.206,142.5M249.2908,144L241.3475,144L241.3475,142.5L249.2908,142.5M237.3759,144L229.43259999999998,144L229.43259999999998,142.5L237.3759,142.5M225.461,144L217.5177,144L217.5177,142.5L225.461,142.5M213.5461,144L205.6028,144L205.6028,142.5L213.5461,142.5M201.6312,144L193.6879,144L193.6879,142.5L201.6312,142.5M189.7163,144L181.773,144L181.773,142.5L189.7163,142.5M177.8014,144L169.8582,144L169.8582,142.5L177.8014,142.5M165.8865,144L157.94324,144L157.94324,142.5L165.8865,142.5M153.97162,144L150,144L150,142.5L153.97162,142.5M150,144L150,140L151.5,140L151.5,144M150,136L150,128L151.5,128L151.5,136M150,124L150,116L151.5,116L151.5,124M150,112L150,104L151.5,104L151.5,112M150,100L150,92L151.5,92L151.5,100M150,88L150,80L151.5,80L151.5,88M150,76L150,72L151.5,72L151.5,76" fill="#DDDDDD" fill-opacity="1"/></g><g style="mix-blend-mode:passthrough"><g style="mix-blend-mode:passthrough"><path d="M64.0605,30.707014741210937L64.0605,41.933584741210936Q64.0605,42.85938474121094,63.8555,43.31048474121094Q63.6562,43.76758474121094,63.1523,43.943384741210934Q62.6543,44.12498474121094,61.6523,44.12498474121094Q60.3223,44.12498474121094,59.373,44.03708474121093L59.0977,42.572284741210936Q60.2402,42.71878474121094,61.2129,42.71878474121094Q61.8574,42.71878474121094,62.1387,42.62498474121094Q62.4199,42.52538474121094,62.5195,42.27338474121093Q62.625,42.01558474121094,62.625,41.45308474121094L62.625,32.12498474121094L57.76758,32.12498474121094Q57.73242,33.43162474121094,57.48047,34.49803474121094Q58.4473,35.34768474121094,59.9297,36.742184741210934Q61.4121,38.136684741210935,62.3262,39.08008474121094L61.2363,40.24018474121094Q60.3984,39.31448474121094,59.1914,38.07808474121094Q57.98438,36.83588474121094,56.99414,35.89258474121094Q56.46094,37.087884741210935,55.45312,38.20118474121094Q54.44531,39.31448474121094,52.83984,40.544884741210936L51.87891,39.27928474121094Q53.58398,38.031184741210936,54.52148,36.964784741210934Q55.45898,35.89258474121094,55.85742,34.761704741210934Q56.25586,33.62498474121094,56.29102,32.12498474121094L51.68555,32.12498474121094L51.68555,44.12498474121094L50.25,44.12498474121094L50.25,30.707014741210937L56.29102,30.707014741210937L56.29102,27.988264741210937L57.76758,27.988264741210937L57.76758,30.707014741210937L64.0605,30.707014741210937ZM69,30.999984741210938L69,32.99803474121094L67.5996,32.99803474121094L67.5996,29.66990474121094L74.3262,29.66990474121094Q73.9102,28.714824741210936,73.5352,28.011704741210938L74.9238,27.490214741210938Q75.416,28.46287474121094,75.8496,29.66990474121094L82.125,29.66990474121094L82.125,33.03318474121094L80.7012,33.03318474121094L80.7012,30.999984741210938L69,30.999984741210938ZM76.7695,31.632794741210937Q77.7656,32.10154474121094,79.3652,32.92186474121094Q80.9707,33.74217474121094,82.24799999999999,34.44529474121094L81.6211,35.622984741210935Q80.291,34.878894741210935,78.6738,34.02342474121094Q77.0566,33.162094741210936,76.1016,32.72850474121094L76.7695,31.632794741210937ZM67.6172,34.427714741210934Q68.8359,33.941394741210935,70.2012,33.191394741210935Q71.5723,32.441394741210935,72.7734,31.65037474121094L73.4766,32.763654741210935Q71.0273,34.427714741210934,68.2266,35.693384741210934L67.6172,34.427714741210934ZM82.5762,39.976584741210935Q81.43950000000001,39.54298474121094,80.25,38.96878474121094L80.25,44.12498474121094L78.832,44.12498474121094L78.832,43.527284741210934L70.875,43.527284741210934L70.875,44.12498474121094L69.4512,44.12498474121094L69.4512,38.96878474121094Q68.1738,39.57808474121094,67.1309,39.976584741210935L66.5742,38.68158474121094Q69.2461,37.70308474121094,71.0918,36.58398474121094Q72.9434,35.45898474121094,74.2031,34.04686474121094L75.5215,34.04686474121094Q76.8574,35.49408474121094,78.7148,36.61908474121094Q80.5723,37.73828474121094,83.168,38.664084741210935L82.5762,39.976584741210935ZM79.3184,38.49998474121094Q76.623,37.05268474121094,74.8711,35.242184741210934Q73.0488,37.07028474121094,70.3711,38.49998474121094L79.3184,38.49998474121094ZM70.875,39.81248474121094L70.875,42.24998474121094L78.832,42.24998474121094L78.832,39.81248474121094L70.875,39.81248474121094ZM100.2422,33.30857474121094L88.125,33.30857474121094L88.125,34.52732474121094Q88.125,36.89448474121094,87.9551,38.51758474121094Q87.7852,40.14058474121094,87.3398,41.49408474121094Q86.90039999999999,42.84768474121094,86.0918,44.259784741210936L84.7031,43.68548474121094Q85.4941,42.308584741210936,85.916,41.089784741210934Q86.3438,39.86518474121094,86.5195,38.259784741210936Q86.7012,36.64838474121094,86.7012,34.099594741210936L86.7012,28.749984741210938L100.2422,28.749984741210938L100.2422,33.30857474121094ZM98.82419999999999,32.12498474121094L98.82419999999999,29.99217474121094L88.125,29.99217474121094L88.125,32.12498474121094L98.82419999999999,32.12498474121094ZM99.73830000000001,35.12498474121094L99.73830000000001,36.33198474121094L89.42580000000001,36.33198474121094L89.42580000000001,35.12498474121094L99.73830000000001,35.12498474121094ZM93.9434,39.34958474121094Q92.9531,40.66208474121094,91.18950000000001,42.31448474121093L97.5293,41.75778474121094Q96.832,40.89648474121094,96.2695,40.246084741210936L97.40039999999999,39.496084741210936Q98.1387,40.34568474121094,99.0293,41.429684741210934Q99.9199,42.51368474121094,100.4941,43.31048474121094L99.4336,44.22458474121093Q99.0938,43.73828474121093,98.4082,42.87698474121093Q95.2207,43.09378474121094,91.10159999999999,43.45118474121094L88.957,43.65038474121094L88.6523,42.42578474121093Q89.3555,42.19138474121094,89.7656,41.85158474121094Q91.1191,40.679684741210934,92.1973,39.34958474121094L88.4707,39.34958474121094L88.4707,38.12498474121094L100.875,38.12498474121094L100.875,39.34958474121094L93.9434,39.34958474121094Z" fill="#DDDDDD" fill-opacity="1"/></g></g><g style="mix-blend-mode:passthrough"><g style="mix-blend-mode:passthrough"><path d="M51.13477,99.31639474121094Q51.79688,99.96092474121093,52.64648,100.88084474121094Q53.49609,101.80076474121094,53.99414,102.45701474121094L52.95703,103.40037474121094Q52.43555,102.71482474121093,51.55078,101.74803474121094Q50.67188,100.78123474121094,50.09766,100.25389474121094L51.13477,99.31639474121094ZM55.35352,100.12498474121094L64.0781,100.12498474121094L64.0781,106.84568474121093L57.375,106.84568474121093L57.375,112.01948474121093Q57.375,112.69918474121094,57.50391,113.00978474121094Q57.63281,113.31448474121093,57.96094,113.42578474121093Q58.2891,113.53118474121094,59.0098,113.59568474121093Q59.7715,113.64838474121093,60.5098,113.64838474121093Q61.2715,113.64838474121093,61.9922,113.59568474121093Q62.7363,113.53118474121094,63.0527,113.42578474121093Q63.3691,113.31448474121093,63.4805,113.04488474121094Q63.5918,112.77538474121094,63.6504,112.10738474121094Q63.6855,111.62698474121093,63.709,110.95898474121094Q63.7383,110.29098474121093,63.7383,109.81048474121094L65.2148,110.14448474121093Q65.1797,111.37498474121094,65.0859,112.62298474121094Q65.0098,113.63668474121094,64.8105,114.09378474121094Q64.6113,114.55658474121094,64.1191,114.75588474121093Q63.6328,114.95508474121094,62.5664,115.04878474121094Q61.6641,115.12498474121094,60.5039,115.12498474121094Q59.3789,115.12498474121094,58.4414,115.05468474121093Q57.38086,114.98438474121093,56.86523,114.76168474121094Q56.35547,114.53908474121094,56.13281,114.02338474121093Q55.91602,113.51368474121094,55.91602,112.46478474121093L55.91602,105.37498474121094L62.625,105.37498474121094L62.625,101.54881474121093L55.35352,101.54881474121093L55.35352,100.12498474121094ZM49.00195,104.57225474121094L52.78125,104.57225474121094L52.78125,112.33008474121094Q54.59766,110.88278474121094,54.89648,110.58978474121093L55.30078,112.14838474121093Q55.17188,112.21878474121094,54.85547,112.49408474121094Q52.78711,114.07028474121094,52.50586,114.32808474121094Q52.14844,114.58588474121093,51.73828,115.05468474121093L50.85352,113.90038474121094Q51.19336,113.57228474121094,51.28125,113.36718474121093Q51.375,113.16208474121093,51.375,112.79878474121094L51.375,105.86131474121093L49.00195,105.86131474121093L49.00195,104.57225474121094ZM78.1934,110.62498474121094Q80.0449,112.13088474121093,83.1035,113.27338474121093L82.3711,114.65618474121094Q79.8105,113.49018474121094,78.2637,112.35348474121093Q76.7168,111.21678474121094,75.6562,109.67578474121093L75.6562,113.11518474121094Q75.6562,113.95898474121094,75.4453,114.38668474121094Q75.2402,114.81448474121093,74.7598,114.96678474121094Q74.2852,115.12498474121094,73.4062,115.12498474121094Q72.791,115.12498474121094,71.7832,115.01368474121094L71.5312,113.57808474121094Q72.5039,113.73628474121094,73.4766,113.73628474121094Q73.9277,113.73628474121094,74.0859,113.54298474121094Q74.25,113.34378474121094,74.25,112.80468474121093L74.25,110.32028474121094L73.582,110.73628474121094Q70.0547,113.00388474121094,67.6465,114.27538474121094L66.9785,113.02148474121094Q69.0117,112.00198474121093,70.9746,110.88278474121094Q72.9375,109.76368474121094,74.25,108.87298474121094L74.25,106.56448474121093L67.125,106.56448474121093L67.125,105.28709474121094L78.8965,105.28709474121094L78.8965,103.87498474121094L69.4102,103.87498474121094L69.4102,102.63279474121094L78.8965,102.63279474121094L78.8965,100.95115474121094L68.9062,100.95115474121094L68.9062,99.65623474121094L80.3203,99.65623474121094L80.3203,105.28709474121094L82.9277,105.28709474121094L82.9277,106.56448474121093L75.6562,106.56448474121093L75.6562,107.53118474121094Q76.3359,108.76168474121094,77.2207,109.71088474121093Q79.0605,108.33398474121094,80.3555,106.83398474121094L81.39840000000001,107.87108474121094Q79.9043,109.34768474121094,78.1934,110.62498474121094ZM69.2285,107.06248474121094Q70.6699,107.96478474121093,72.0527,109.14258474121094L71.2266,110.21478474121093Q69.4805,108.74998474121094,68.4551,108.10548474121094L69.2285,107.06248474121094ZM100.2422,104.30857474121093L88.125,104.30857474121093L88.125,105.52732474121093Q88.125,107.89448474121093,87.9551,109.51758474121094Q87.7852,111.14058474121094,87.3398,112.49408474121094Q86.90039999999999,113.84768474121094,86.0918,115.25978474121094L84.7031,114.68548474121094Q85.4941,113.30858474121094,85.916,112.08978474121093Q86.3438,110.86518474121094,86.5195,109.25978474121094Q86.7012,107.64838474121093,86.7012,105.09959474121094L86.7012,99.74998474121094L100.2422,99.74998474121094L100.2422,104.30857474121093ZM98.82419999999999,103.12498474121094L98.82419999999999,100.99217474121093L88.125,100.99217474121093L88.125,103.12498474121094L98.82419999999999,103.12498474121094ZM99.73830000000001,106.12498474121094L99.73830000000001,107.33198474121093L89.42580000000001,107.33198474121093L89.42580000000001,106.12498474121094L99.73830000000001,106.12498474121094ZM93.9434,110.34958474121093Q92.9531,111.66208474121093,91.18950000000001,113.31448474121093L97.5293,112.75778474121094Q96.832,111.89648474121094,96.2695,111.24608474121094L97.40039999999999,110.49608474121094Q98.1387,111.34568474121093,99.0293,112.42968474121093Q99.9199,113.51368474121094,100.4941,114.31048474121094L99.4336,115.22458474121093Q99.0938,114.73828474121093,98.4082,113.87698474121093Q95.2207,114.09378474121094,91.10159999999999,114.45118474121094L88.957,114.65038474121094L88.6523,113.42578474121093Q89.3555,113.19138474121094,89.7656,112.85158474121094Q91.1191,111.67968474121093,92.1973,110.34958474121093L88.4707,110.34958474121093L88.4707,109.12498474121094L100.875,109.12498474121094L100.875,110.34958474121093L93.9434,110.34958474121093Z" fill="#DDDDDD" fill-opacity="1"/></g></g></g></svg>