<svg xmlns="http://www.w3.org/2000/svg" xmlns:xlink="http://www.w3.org/1999/xlink" fill="none" version="1.1" width="460" height="262" viewBox="0 0 460 262"><g style="mix-blend-mode:passthrough"><g style="mix-blend-mode:passthrough"><g style="mix-blend-mode:passthrough"><path d="M51,28.5L60.75,28.5L60.75,29.9707L56.74219,29.9707L56.74219,42L55.125,42L55.125,29.9707L51,29.9707L51,28.5ZM62.625,28.5L64.2422,28.5L64.2422,40.5293L70.6875,40.5293L70.6875,42L62.625,42L62.625,28.5ZM81,38.25Q81,39.4102,80.4785,40.3066Q79.957,41.1973,78.9434,41.6953Q77.9355,42.1875,76.5527,42.1875Q74.6191,42.1875,73.248,41.2793Q71.877,40.3652,71.4434,38.8535L72.7031,38.0742Q73.2012,39.3516,74.1738,40.037099999999995Q75.1465,40.7168,76.5938,40.7168Q77.9121,40.7168,78.6445,40.1309Q79.3828,39.5391,79.3828,38.4902Q79.3828,37.6406,78.9258,37.1133Q78.4688,36.5859,77.8008,36.293Q77.1387,36,75.9727,35.6543Q74.6777,35.2617,73.8867,34.916Q73.0957,34.5645,72.5449,33.86133Q72,33.1582,72,32.01562Q72,30.86133,72.5801,30.02344Q73.1602,29.17969,74.1738,28.74609Q75.1934,28.3125,76.459,28.3125Q78.2285,28.3125,79.3184,29.10352Q80.41409999999999,29.88867,80.7949,31.0957L79.5527,31.86914Q79.1309,30.89062,78.3809,30.33984Q77.6309,29.7832,76.3945,29.7832Q75.1348,29.7832,74.373,30.3457Q73.6172,30.90234,73.6172,31.8457Q73.6172,32.54297,74.0273,32.98828Q74.4375,33.42773,75.0527,33.68555Q75.6738,33.94336,76.7578,34.2598Q78.123,34.6641,78.9609,35.0508Q79.7988,35.4316,80.3965,36.2109Q81,36.9844,81,38.25ZM53.61328,59.3906Q53.32617,59.5371,52.00781,60.0645L52.00781,65.3789Q52.00781,66.36330000000001,51.62695,66.7441Q51.25195,67.125,50.19141,67.125Q49.59961,67.125,48.966797,67.0078L48.697266,65.5312Q49.27148,65.8652,50.00977,65.8652Q50.42578,65.8652,50.54883,65.7305Q50.67773,65.5898,50.67773,65.18549999999999L50.67773,60.5508L48.767578,61.2422L48.480469,59.8359L50.67773,59.0742L50.67773,55.7285L48.75,55.7285L48.75,54.334L50.67773,54.334L50.67773,50.9941L52.00781,50.9941L52.00781,54.334L53.63086,54.334L53.63086,55.7285L52.00781,55.7285L52.00781,58.5879Q52.98047,58.2539,53.61328,57.9902L53.61328,59.3906ZM55.72266,55.875L55.72266,57.7559Q55.72266,59.959,55.59375,61.4766Q55.4707,62.9941,55.08398,64.41210000000001Q54.69727,65.82419999999999,53.94141,67.37700000000001L52.69336,66.5332Q53.43164,65.16210000000001,53.7832,63.9434Q54.14062,62.7246,54.25781,61.3301Q54.375,59.9297,54.375,57.6738L54.375,51.75L64.2129,51.75L64.2129,55.875L55.72266,55.875ZM62.8594,54.726600000000005L62.8594,52.957L55.72266,52.957L55.72266,54.726600000000005L62.8594,54.726600000000005ZM60.9375,65.625L64.9512,65.625L64.9512,66.7559L55.70508,66.7559L55.70508,65.625L59.5664,65.625L59.5664,63.7617L56.50781,63.7617L56.50781,62.625L59.5664,62.625L59.5664,61.2012Q58.2363,61.2715,57.60352,61.248Q56.70703,61.3008,56.32617,61.3652L56.14453,60.4102Q56.57227,60.293,56.88867,60.0176Q57.65039,59.2676,58.5059,58.1367L56.27344,58.1367L56.27344,57L64.5,57L64.5,58.1367L60.0176,58.1367Q59.0566,59.3848,58.1602,60.3164L62.373,60.0645L62.0859,59.5781Q61.7812,59.0332,61.5645,58.7344L62.5898,58.1367Q62.9531,58.6406,63.4277,59.4375Q63.9082,60.2344,64.0312,60.4512L64.5879,61.3652L63.5449,61.9395L62.9648,61.0898L60.9375,61.1426L60.9375,62.625L64.1191,62.625L64.1191,63.7617L60.9375,63.7617L60.9375,65.625ZM83.25,60.75L83.25,62.1152L76.1074,62.1152L76.1074,64.9043Q76.1074,65.7656,75.9316,66.2402Q75.7617,66.7148,75.3457,66.9199Q74.9355,67.125,74.1797,67.125Q72.9551,67.125,71.7129,67.0137L71.4082,65.5781Q72.9199,65.7539,73.6758,65.7539Q74.1797,65.7539,74.3789,65.44919999999999Q74.5781,65.1445,74.5781,64.41210000000001L74.5781,62.1152L67.125,62.1152L67.125,60.75L74.5781,60.75L74.5781,58.0312L68.3848,58.0312L68.3848,56.625L74.5781,56.625L74.5781,53.525400000000005Q71.2441,53.7422,68.2031,53.8477L68.0801,52.4824Q70.7754,52.412099999999995,74.8418,52.113299999999995Q78.9082,51.814499999999995,81.791,51.474599999999995L82.0078,52.8809Q79.8867,53.1328,76.1074,53.4199L76.1074,56.625L81.9902,56.625L81.9902,58.0312L76.1074,58.0312L76.1074,60.75L83.25,60.75Z" fill="#DDDDDD" fill-opacity="1"/></g><path d="M0,0L4,0L4,1.5L0,1.5M8,0L16,0L16,1.5L8,1.5M20,0L28,0L28,1.5L20,1.5M32,0L40,0L40,1.5L32,1.5M44,0L52,0L52,1.5L44,1.5M56,0L64,0L64,1.5L56,1.5M68,0L76,0L76,1.5L68,1.5M80,0L88,0L88,1.5L80,1.5M92,0L100,0L100,1.5L92,1.5M104,0L112,0L112,1.5L104,1.5M116,0L124,0L124,1.5L116,1.5M128,0L132,0L132,1.5L128,1.5M132,0L132,4L130.5,4L130.5,0M132,8L132,16L130.5,16L130.5,8M132,20L132,28L130.5,28L130.5,20M132,32L132,40L130.5,40L130.5,32M132,44L132,52L130.5,52L130.5,44M132,56L132,64L130.5,64L130.5,56M132,68L132,76L130.5,76L130.5,68M132,80L132,88L130.5,88L130.5,80M132,92L132,96L130.5,96L130.5,92M0,96L0,92L1.5,92L1.5,96M0,88L0,80L1.5,80L1.5,88M0,76L0,68L1.5,68L1.5,76M0,64L0,56L1.5,56L1.5,64M0,52L0,44L1.5,44L1.5,52M0,40L0,32L1.5,32L1.5,40M0,28L0,20L1.5,20L1.5,28M0,16L0,8L1.5,8L1.5,16M0,4L0,0L1.5,0L1.5,4" fill="#DDDDDD" fill-opacity="1"/></g><g style="mix-blend-mode:passthrough"><g style="mix-blend-mode:passthrough"><path d="M195.418,139.8125L193.06799999999998,139.8125L189.564,137.082Q188.99599999999998,137.1875,188.41,137.1875Q186.699,137.1875,185.322,136.3438Q183.945,135.5,183.16,133.918Q182.375,132.3359,182.375,130.2441Q182.375,128.16992,183.154,126.58789Q183.934,125.00586,185.299,124.16211Q186.67000000000002,123.3125,188.375,123.3125Q190.07999999999998,123.3125,191.445,124.17383Q192.816,125.0293,193.596,126.60547Q194.375,128.17578,194.375,130.2559Q194.375,132.4238,193.549,134.0352Q192.723,135.6465,191.299,136.4727L195.418,139.8125ZM183.99200000000002,130.25Q183.99200000000002,131.8555,184.51999999999998,133.0977Q185.047,134.334,186.043,135.0254Q187.04500000000002,135.7168,188.375,135.7168Q189.711,135.7168,190.695,135.0254Q191.686,134.334,192.219,133.0977Q192.75799999999998,131.8555,192.75799999999998,130.25Q192.75799999999998,128.62695,192.219,127.39062Q191.686,126.14844,190.695,125.46875Q189.711,124.7832,188.375,124.7832Q187.04500000000002,124.7832,186.055,125.46875Q185.07,126.14844,184.531,127.39062Q183.99200000000002,128.62695,183.99200000000002,130.25ZM205.25,123.5L206.867,123.5L206.867,131.5332Q206.867,133.2676,206.258,134.5508Q205.648,135.8281,204.488,136.5078Q203.334,137.1875,201.73399999999998,137.1875Q199.332,137.1875,197.97899999999998,135.6758Q196.625,134.1641,196.625,131.5332L196.625,123.5L198.24200000000002,123.5L198.24200000000002,131.2988Q198.24200000000002,133.4434,199.13299999999998,134.5801Q200.023,135.7168,201.74,135.7168Q203.451,135.7168,204.348,134.5801Q205.25,133.4434,205.25,131.2988L205.25,123.5ZM211.367,137L209.75,137L209.75,123.5L211.367,123.5L211.367,137ZM219.383,135.7168Q221.545,135.7168,222.553,133.666L223.848,134.4395Q223.297,135.7344,222.131,136.4609Q220.971,137.1875,219.453,137.1875Q217.789,137.1875,216.43,136.3086Q215.07,135.4297,214.285,133.8477Q213.5,132.2656,213.5,130.2441Q213.5,128.22266,214.285,126.64062Q215.07,125.05859,216.43,124.18555Q217.789,123.3125,219.453,123.3125Q220.971,123.3125,222.131,124.04492Q223.297,124.77148,223.848,126.06055L222.553,126.83398Q221.545,124.7832,219.383,124.7832Q218.123,124.7832,217.15,125.46875Q216.184,126.1543,215.65,127.39648Q215.117,128.63281,215.117,130.2441Q215.117,131.8496,215.65,133.1035Q216.184,134.3516,217.15,135.0371Q218.123,135.7168,219.383,135.7168ZM241.467,129.125L234.412,129.125Q234.084,130.25,233.814,131L240.102,131L240.102,132.3125Q239.797,132.7812,239.006,133.8652Q238.215,134.9492,237.529,135.8516L240.154,137.0469L239.545,138.377Q234.453,135.82229999999998,231.658,134.6738L232.18,133.5078Q233.188,133.9062,235.707,135.0195L236.246,135.25979999999998Q236.75,134.6387,237.389,133.7656Q238.033,132.8867,238.391,132.3301L232.25,132.3301L232.25,131.123Q232.555,130.2852,232.9,129.125L230,129.125L230,127.77148L233.275,127.77148Q233.457,127.12109,233.779,125.75L230.973,125.75L230.973,124.41992L234.084,124.41992Q234.465,122.45703,234.553,121.78906L236.012,121.9707Q235.766,123.5,235.566,124.41992L240.799,124.41992L240.799,125.75L235.273,125.75Q234.951,127.12109,234.77,127.77148L241.467,127.77148L241.467,129.125ZM230.363,122.27539Q229.66,124.39062,228.875,126.08398L228.875,138.125L227.492,138.125L227.492,128.65625Q226.643,130.0859,225.564,131.4336L224.879,129.9629Q226.033,128.43359,227.117,126.30664Q228.201,124.17969,228.98,121.89453L230.363,122.27539ZM249.09,134.2402L247.52,134.4922L247.52,138.125L246.242,138.125L246.242,134.709Q244.572,135.0195,243.365,135.2715L243.201,133.8477Q244.057,133.7363,245.334,133.502Q245.686,133.4668,246.242,133.3613L246.242,130.9121L243.617,130.9121L243.617,129.5645Q244.244,127.8418,244.877,125.48047L243.4,125.48047L243.4,124.18555L245.199,124.18555Q245.527,122.84961,245.721,121.75391L246.98,122.02344Q246.787,122.97852,246.459,124.18555L249.5,124.18555L249.5,125.48047L246.137,125.48047Q245.486,127.89453,244.895,129.6523L246.242,129.6523L246.242,127.00391L247.52,127.00391L247.52,129.6523L248.979,129.6523L248.979,130.9121L247.52,130.9121L247.52,133.127Q247.789,133.0918,248.041,133.0449Q248.299,132.998,248.533,132.9629L248.996,132.875L249.09,134.2402ZM255.09,121.9707Q255.928,123.32422,257.182,124.50195Q258.44100000000003,125.67969,259.9,126.51172L259.273,127.57812Q258.10699999999997,126.98047,257,126.14844L257,127.25L251.615,127.25L251.615,126.40039Q250.654,127.07422,249.576,127.67773L248.744,126.63477Q250.379,125.63867,251.58,124.50195Q252.787,123.35938,253.684,121.9707L255.09,121.9707ZM256.93,126.0957Q255.395,124.75391,254.428,123.23047Q253.42,124.77148,251.955,126.0957L256.93,126.0957ZM257.709,127.91797L258.875,127.91797L258.875,136.2559Q258.875,137.293,258.5,137.709Q258.131,138.125,257.152,138.125Q256.355,138.125,255.488,138.0137L255.254,136.7891Q256.238,136.9355,257,136.9355Q257.375,136.9355,257.539,136.6719Q257.709,136.4082,257.709,135.8516L257.709,127.91797ZM249.834,138.125L249.834,128.27539L254.264,128.27539L254.264,136.5312Q254.264,137.3867,253.982,137.7266Q253.707,138.07229999999998,253.039,138.07229999999998Q252.641,138.07229999999998,251.85,137.9961L251.615,136.8477Q251.744,136.86520000000002,252.049,136.9121Q252.354,136.9531,252.635,136.9531Q252.928,136.9531,253.045,136.7832Q253.162,136.6133,253.162,136.209L253.162,134.6914L250.982,134.6914L250.982,138.125L249.834,138.125ZM255.506,135.125L255.506,128.55664L256.619,128.55664L256.619,135.125L255.506,135.125ZM253.162,130.9707L253.162,129.4004L250.982,129.4004L250.982,130.9707L253.162,130.9707ZM250.982,132.0488L250.982,133.5957L253.162,133.5957L253.162,132.0488L250.982,132.0488ZM276.61699999999996,127.30859L264.5,127.30859L264.5,128.52734Q264.5,130.8945,264.33000000000004,132.5176Q264.15999999999997,134.1406,263.71500000000003,135.4941Q263.275,136.8477,262.467,138.25979999999998L261.078,137.6855Q261.869,136.3086,262.291,135.0898Q262.719,133.8652,262.895,132.2598Q263.076,130.6484,263.076,128.09961L263.076,122.75L276.61699999999996,122.75L276.61699999999996,127.30859ZM275.199,126.125L275.199,123.99219L264.5,123.99219L264.5,126.125L275.199,126.125ZM276.113,129.125L276.113,130.332L265.801,130.332L265.801,129.125L276.113,129.125ZM270.318,133.3496Q269.328,134.6621,267.56399999999996,136.3145L273.904,135.7578Q273.207,134.8965,272.645,134.2461L273.775,133.4961Q274.514,134.3457,275.404,135.4297Q276.29499999999996,136.5137,276.869,137.3105L275.80899999999997,138.2246Q275.469,137.7383,274.783,136.877Q271.596,137.0938,267.477,137.4512L265.332,137.6504L265.027,136.4258Q265.73,136.1914,266.14099999999996,135.8516Q267.494,134.6797,268.572,133.3496L264.846,133.3496L264.846,132.125L277.25,132.125L277.25,133.3496L270.318,133.3496ZM88.9707,154.3379Q88.9707,151.79489999999998,89.8145,149.6445Q90.6641,147.4941,92.1406,146L93.5938,146Q92.1406,147.7637,91.3555,149.8086Q90.5703,151.8535,90.5703,154.3379Q90.5703,156.8398,91.3555,158.8906Q92.1406,160.9414,93.5938,162.66989999999998L92.1406,162.66989999999998Q90.6641,161.1758,89.8145,159.0371Q88.9707,156.89260000000002,88.9707,154.3379ZM110.35159999999999,154.4961L109.5195,153.4238Q106.2441,153.5645,102.998,153.8281Q101.4336,153.9746,100.6074,154.08010000000002L100.2441,152.8145Q100.8594,152.7441,101.2344,152.39260000000002Q102.3359,151.373,103.918,149.375L100.625,149.375L100.625,148.00979999999998L105.1777,148.00979999999998Q104.3691,146.3867,104.1699,146.0996L105.5586,145.49020000000002Q105.7578,145.75979999999998,106.5078,147.2363L106.9238,148.00979999999998L111.6934,148.00979999999998L111.6934,149.375L105.7168,149.375Q105.0312,150.248,104.2344,151.1562Q103.4375,152.0645,102.8223,152.6562Q104.2637,152.5625,105.6934,152.457Q107.1289,152.3516,108.5469,152.2461Q107.6797,151.1797,107.1055,150.5352L108.2012,149.75Q110.2168,152.123,111.4414,153.6172L110.35159999999999,154.4961ZM99.1309,149.8262Q98.5156,149.2871,97.6074,148.5957Q96.6992,147.9043,96.1074,147.5234L96.9336,146.3867Q97.5078,146.76760000000002,98.3984,147.418Q99.2891,148.0625,99.9922,148.6191L99.1309,149.8262ZM98.627,154.1094Q97.959,153.5352,96.9688,152.7852Q95.9785,152.0352,95.3516,151.625L96.1777,150.5Q97.9238,151.6602,99.4707,152.9082L98.627,154.1094ZM101.6035,156.29489999999998Q101.5801,155.8203,101.5801,154.543L102.9102,154.543L102.8926,156.4707Q102.8926,157.94729999999998,102.6641,158.9023Q102.4414,159.85739999999998,101.8027,160.7012Q101.1641,161.54489999999998,99.8867,162.6113L98.8789,161.7852Q99.957,160.9531,100.5254,160.3145Q101.0996,159.6758,101.3574,158.8965Q101.6211,158.1113,101.6211,156.9219Q101.6211,156.5117,101.6035,156.29489999999998ZM112.3672,158.0762Q112.31450000000001,160.0742,112.2793,160.4961Q112.22659999999999,161.375,111.8457,161.7383Q111.4648,162.10739999999998,110.5977,162.14260000000002Q110.416,162.1602,110.0352,162.1602Q109.666,162.1602,109.4668,162.14260000000002Q108.6875,162.10739999999998,108.3359,161.7266Q107.9844,161.3516,107.9844,160.502L107.9844,154.543L109.3203,154.543L109.3203,160.127Q109.3203,160.502,109.4375,160.6719Q109.5547,160.8418,109.8652,160.86520000000002L110.1875,160.8828Q110.5566,160.8828,110.709,160.8418Q110.8672,160.79489999999998,110.9375,160.6309Q111.0078,160.4609,111.06049999999999,160.0625Q111.10159999999999,159.7461,111.125,159.0664Q111.1543,158.3867,111.1543,157.9004L112.3672,158.0762ZM106.1328,162.125L104.8379,162.125L104.8379,154.75979999999998L106.1328,154.75979999999998L106.1328,162.125ZM99.3477,155.8262Q98.9668,157.0039,98.3457,158.9668Q97.7246,160.9297,97.3496,162.1602L95.9082,161.9141Q96.1602,161.32229999999998,96.998,158.668Q97.8359,156.0137,97.959,155.4395L99.3477,155.8262ZM129.8867,149L129.8867,150.4004L124.4727,150.4004Q124.68950000000001,153.89260000000002,125.16409999999999,156.14260000000002Q125.6445,158.39260000000002,126.40039999999999,159.6641Q126.6699,160.1035,126.9043,160.26760000000002Q127.1387,160.4316,127.42580000000001,160.4316Q127.71289999999999,160.4316,127.8711,160.1914Q128.0352,159.9453,128.2168,159.125Q128.416,158.20510000000002,128.5918,157.0039L129.8516,157.45510000000002Q129.582,159.1953,129.4062,159.916Q129.0781,161.1523,128.5977,161.6387Q128.123,162.125,127.4434,162.125Q126.7578,162.125,126.1602,161.6738Q125.5625,161.2285,124.9531,160.1387Q124.2148,158.791,123.6934,156.3242Q123.1719,153.85739999999998,122.9727,150.4004L114.06049999999999,150.4004L114.06049999999999,149L122.9199,149Q122.8848,146.5684,122.81450000000001,145.8477L124.3262,145.8477Q124.3262,147.2891,124.4023,149L129.8867,149ZM127.6953,148.8711Q126.793,147.8984,125.5332,146.8906L126.41210000000001,145.9355Q126.89840000000001,146.3105,127.5488,146.88479999999998Q128.1992,147.4531,128.5742,147.8281L127.6953,148.8711ZM119.17580000000001,158.9258Q120.9043,158.6738,122.9375,158.334L122.9727,159.7695Q117.4238,160.6719,114.166,161.082L113.9727,159.6582Q115.3789,159.4766,116.0586,159.377L117.6816,159.1602L117.6816,154.5488L114.4941,154.5488L114.4941,153.125L122.3223,153.125L122.3223,154.5488L119.17580000000001,154.5488L119.17580000000001,158.9258ZM148.0918,153.125L141.0371,153.125Q140.709,154.25,140.4395,155L146.72660000000002,155L146.72660000000002,156.3125Q146.4219,156.7812,145.6309,157.86520000000002Q144.8398,158.9492,144.1543,159.8516L146.7793,161.0469L146.16989999999998,162.377Q141.0781,159.82229999999998,138.2832,158.6738L138.8047,157.5078Q139.8125,157.9062,142.332,159.0195L142.8711,159.25979999999998Q143.375,158.6387,144.0137,157.7656Q144.6582,156.8867,145.0156,156.33010000000002L138.875,156.33010000000002L138.875,155.123Q139.1797,154.2852,139.5254,153.125L136.625,153.125L136.625,151.7715L139.9004,151.7715Q140.082,151.1211,140.4043,149.75L137.5977,149.75L137.5977,148.41989999999998L140.709,148.41989999999998Q141.0898,146.457,141.17770000000002,145.7891L142.63670000000002,145.9707Q142.3906,147.5,142.1914,148.41989999999998L147.4238,148.41989999999998L147.4238,149.75L141.89839999999998,149.75Q141.5762,151.1211,141.3945,151.7715L148.0918,151.7715L148.0918,153.125ZM136.9883,146.2754Q136.2852,148.3906,135.5,150.084L135.5,162.125L134.1172,162.125L134.1172,152.6562Q133.26760000000002,154.0859,132.1895,155.4336L131.5039,153.9629Q132.6582,152.4336,133.7422,150.3066Q134.8262,148.1797,135.6055,145.8945L136.9883,146.2754ZM155.7148,158.24020000000002L154.1445,158.4922L154.1445,162.125L152.8672,162.125L152.8672,158.709Q151.19729999999998,159.0195,149.99020000000002,159.2715L149.8262,157.8477Q150.6816,157.7363,151.959,157.502Q152.3105,157.4668,152.8672,157.3613L152.8672,154.9121L150.2422,154.9121L150.2422,153.5645Q150.8691,151.8418,151.502,149.4805L150.0254,149.4805L150.0254,148.1855L151.82420000000002,148.1855Q152.1523,146.8496,152.3457,145.7539L153.6055,146.0234Q153.4121,146.9785,153.084,148.1855L156.125,148.1855L156.125,149.4805L152.76170000000002,149.4805Q152.1113,151.8945,151.5195,153.6523L152.8672,153.6523L152.8672,151.0039L154.1445,151.0039L154.1445,153.6523L155.6035,153.6523L155.6035,154.9121L154.1445,154.9121L154.1445,157.127Q154.41410000000002,157.0918,154.666,157.04489999999998Q154.9238,156.998,155.1582,156.9629L155.6211,156.875L155.7148,158.24020000000002ZM161.7148,145.9707Q162.55270000000002,147.3242,163.8066,148.502Q165.0664,149.6797,166.5254,150.5117L165.89839999999998,151.5781Q164.73239999999998,150.9805,163.625,150.1484L163.625,151.25L158.24020000000002,151.25L158.24020000000002,150.4004Q157.2793,151.0742,156.2012,151.67770000000002L155.3691,150.63479999999998Q157.0039,149.6387,158.20510000000002,148.502Q159.4121,147.3594,160.3086,145.9707L161.7148,145.9707ZM163.5547,150.0957Q162.0195,148.7539,161.05270000000002,147.2305Q160.04489999999998,148.7715,158.58010000000002,150.0957L163.5547,150.0957ZM164.334,151.918L165.5,151.918L165.5,160.2559Q165.5,161.293,165.125,161.709Q164.7559,162.125,163.7773,162.125Q162.9805,162.125,162.11329999999998,162.0137L161.8789,160.7891Q162.86329999999998,160.9355,163.625,160.9355Q164,160.9355,164.16410000000002,160.6719Q164.334,160.4082,164.334,159.8516L164.334,151.918ZM156.459,162.125L156.459,152.2754L160.8887,152.2754L160.8887,160.5312Q160.8887,161.3867,160.60739999999998,161.7266Q160.332,162.07229999999998,159.66410000000002,162.07229999999998Q159.2656,162.07229999999998,158.4746,161.9961L158.24020000000002,160.8477Q158.3691,160.86520000000002,158.6738,160.9121Q158.9785,160.9531,159.25979999999998,160.9531Q159.55270000000002,160.9531,159.66989999999998,160.7832Q159.7871,160.6133,159.7871,160.209L159.7871,158.6914L157.60739999999998,158.6914L157.60739999999998,162.125L156.459,162.125ZM162.1309,159.125L162.1309,152.5566L163.2441,152.5566L163.2441,159.125L162.1309,159.125ZM159.7871,154.9707L159.7871,153.4004L157.60739999999998,153.4004L157.60739999999998,154.9707L159.7871,154.9707ZM157.60739999999998,156.0488L157.60739999999998,157.5957L159.7871,157.5957L159.7871,156.0488L157.60739999999998,156.0488ZM169.5547,158.498Q170.54489999999998,159.0898,171.4648,159.9102Q172.38479999999998,160.7305,173.0996,161.668L172.07420000000002,162.5996Q170.6738,160.64260000000002,168.85160000000002,159.2891L169.5547,158.498ZM202.25,146.8672L202.25,148.25L199.877,148.25L199.877,159.5234Q199.877,160.5781,199.66,161.123Q199.449,161.6738,198.869,161.8965Q198.29500000000002,162.125,197.152,162.125Q195.805,162.125,194.832,162.0371L194.54500000000002,160.625Q195.875,160.7773,197.029,160.7773Q197.62099999999998,160.7773,197.92000000000002,160.6309Q198.219,160.4844,198.336,160.1387Q198.453,159.793,198.453,159.1309L198.453,148.25L185.961,148.25L185.961,146.8672L202.25,146.8672ZM187.959,150.9863L195.23000000000002,150.9863L195.23000000000002,158L187.959,158L187.959,150.9863ZM189.324,156.63479999999998L193.84199999999998,156.63479999999998L193.84199999999998,152.375L189.324,152.375L189.324,156.63479999999998ZM212.809,149.4336L220.027,149.4336L220.027,150.5L203.75,150.5L203.75,149.4336L211.314,149.4336L211.314,148.25L207.207,148.25Q206.832,148.748,206.398,149.1934L205.314,148.45510000000002Q206.328,147.4941,207.207,145.8887L208.52,146.334Q208.268,146.7383,207.945,147.1836L211.314,147.1836L211.314,145.8711L212.809,145.8711L212.809,147.1836L218.516,147.1836L218.516,148.25L212.809,148.25L212.809,149.4336ZM219.143,158.75L214.355,158.75L214.355,159.875L219.951,159.875L219.951,160.8418L214.355,160.8418L214.355,162.125L212.896,162.125L212.896,154.25L210.863,154.25L210.863,162.125L209.404,162.125L209.404,160.8418L203.93200000000002,160.8418L203.93200000000002,159.875L209.404,159.875L209.404,158.75L204.75799999999998,158.75L204.75799999999998,157.6836L209.404,157.6836L209.404,156.5L204.436,156.5L204.436,155.4336L209.404,155.4336L209.404,154.25L205.947,154.25L205.947,151.38479999999998L217.865,151.38479999999998L217.865,154.25L214.355,154.25L214.355,155.4336L219.471,155.4336L219.471,156.5L214.355,156.5L214.355,157.6836L219.143,157.6836L219.143,158.75ZM216.406,152.375L207.406,152.375L207.406,153.1836L216.406,153.1836L216.406,152.375ZM237.693,147.9395L237.693,149.375L222.125,149.375L222.125,147.9395L229.309,147.9395Q228.805,146.73239999999998,228.512,146.1758L229.988,145.6895Q230.568,146.9492,230.926,147.9395L237.693,147.9395ZM236.598,154.9941Q235.695,154.2031,234.02,152.9258Q232.35,151.64260000000002,231.266,150.92770000000002L232.15,149.8613Q233.176,150.5117,234.828,151.7363Q236.486,152.9609,237.494,153.8047L236.598,154.9941ZM222.283,153.9863Q223.637,153.1367,224.92,152.0762Q226.209,151.0156,227.234,149.9023L228.336,150.834Q227.27,151.9707,225.922,153.125Q224.574,154.2734,223.15,155.2461L222.283,153.9863ZM237.623,162.1953Q234.939,161.4746,233.1,160.7012Q231.266,159.92770000000002,229.918,158.9023Q228.57,159.92770000000002,226.736,160.7539Q224.902,161.58010000000002,222.289,162.3535L221.621,160.9707Q224.07,160.30270000000002,225.805,159.5762Q227.539,158.8438,228.805,157.94729999999998Q227.328,156.541,225.922,154.127L227.129,153.3887Q228.441,155.6621,229.918,157.0273Q231.43,155.6035,232.525,153.3711L233.826,154.0391Q232.566,156.4531,231.031,157.9297Q232.314,158.8262,234.037,159.4941Q235.766,160.1621,238.215,160.7188L237.623,162.1953ZM245.275,146.5332Q244.496,148.8008,243.852,150.2188L243.852,162.125L242.375,162.125L242.375,153.0371Q241.566,154.373,240.576,155.5859L239.621,154.25Q240.793,152.7852,241.906,150.6172Q243.025,148.4492,243.799,146.1172L245.275,146.5332ZM256.25,149.75L256.25,151.2266L253.748,151.2266L253.748,159.7754Q253.748,161.0117,253.215,161.5332Q252.682,162.0547,251.369,162.07229999999998Q250.08,162.10739999999998,249.037,161.9785L248.727,160.45510000000002Q249.934,160.6133,250.76,160.6133Q251.404,160.6133,251.709,160.5078Q252.02,160.4023,252.137,160.1387Q252.254,159.875,252.254,159.3066L252.254,151.2266L245.088,151.2266L245.088,149.75L252.254,149.75L252.254,146.2227L253.748,146.2227L253.748,149.75L256.25,149.75ZM248.779,157.7012Q247.607,155.88479999999998,245.879,153.4238L247.086,152.61520000000002Q247.754,153.5293,248.551,154.7012Q249.354,155.8672,250.004,156.834L248.779,157.7012ZM259.555,158.498Q260.54499999999996,159.0898,261.46500000000003,159.9102Q262.385,160.7305,263.1,161.668L262.074,162.5996Q260.674,160.64260000000002,258.852,159.2891L259.555,158.498ZM280.94100000000003,154.4141L280.47900000000004,154.6191Q279.38300000000004,155.0996,279.207,155.1758L279.207,160.3086Q279.207,161.041,279.00800000000004,161.42770000000002Q278.80899999999997,161.8145,278.369,161.9668Q277.93600000000004,162.125,277.121,162.125Q276.799,162.125,276.119,162.0488L275.86699999999996,160.666Q276.623,160.7715,277.033,160.7715Q277.502,160.7715,277.678,160.584Q277.85900000000004,160.3965,277.85900000000004,159.8398L277.85900000000004,155.73239999999998L275.926,156.4707L275.656,155.0117Q276.57,154.6953,277.85900000000004,154.19729999999998L277.85900000000004,150.7461L275.97900000000004,150.7461L275.97900000000004,149.375L277.85900000000004,149.375L277.85900000000004,145.9121L279.207,145.9121L279.207,149.375L281,149.375L281,150.7461L279.207,150.7461L279.207,153.6582Q280.04499999999996,153.3242,280.848,152.9727L280.94100000000003,154.4141ZM281.75,146.8672L291.5,146.8672L291.5,160.0391Q291.5,160.8945,291.301,161.3164Q291.10699999999997,161.7441,290.68,161.9023Q290.25800000000004,162.0664,289.443,162.0664Q289.086,162.0664,288.377,161.9961L288.096,160.6309Q288.975,160.7363,289.355,160.7363Q289.812,160.7363,289.977,160.5078Q290.14599999999996,160.2734,290.14599999999996,159.6523L290.14599999999996,157.0977L287.375,157.0977L287.375,162.125L286.04499999999996,162.125L286.04499999999996,157.0977L283.027,157.0977Q282.904,158.6914,282.541,159.8984Q282.178,161.0996,281.40999999999997,162.3945L280.068,162.0605Q280.777,160.8359,281.123,159.8457Q281.469,158.8496,281.60900000000004,157.57229999999998Q281.75,156.29489999999998,281.75,154.1855L281.75,146.8672ZM286.04499999999996,151.4023L286.04499999999996,148.25L283.098,148.25L283.098,151.4023L286.04499999999996,151.4023ZM287.375,151.4023L290.14599999999996,151.4023L290.14599999999996,148.25L287.375,148.25L287.375,151.4023ZM286.04499999999996,155.75L286.04499999999996,152.75L283.098,152.75L283.098,154.64260000000002Q283.098,155.3984,283.08000000000004,155.75L286.04499999999996,155.75ZM287.375,152.75L287.375,155.75L290.14599999999996,155.75L290.14599999999996,152.75L287.375,152.75ZM305.656,155.75Q307.291,157.0977,310.332,158.0234L309.723,159.3066Q307.812,158.5684,306.418,157.6953Q305.023,156.82229999999998,304.051,155.75L299.89599999999996,155.75Q298.906,156.8691,297.529,157.7773Q296.152,158.6797,294.207,159.4883L293.65,158.1465Q296.562,157.1855,298.203,155.75L294.06100000000004,155.75L294.06100000000004,154.6133L298.924,154.6133L298.924,153.459L295.555,153.459L295.555,152.375L298.924,152.375L298.924,151.2441L295.355,151.2441L295.355,150.125L298.924,150.125L298.924,148.5957L295.988,148.5957L295.988,149.8203L294.61699999999996,149.8203L294.61699999999996,147.5L301.549,147.5Q301.08000000000004,146.6328,300.70500000000004,146.0234L302.105,145.5547L302.416,146.0938Q303.00800000000004,147.1543,303.18899999999996,147.5L309.365,147.5L309.365,149.8203L308.012,149.8203L308.012,148.5957L305.1,148.5957L305.1,150.125L308.645,150.125L308.645,151.2441L305.1,151.2441L305.1,152.375L308.46299999999997,152.375L308.46299999999997,153.459L305.1,153.459L305.1,154.6133L309.922,154.6133L309.922,155.75L305.656,155.75ZM303.799,148.5957L300.201,148.5957L300.201,150.125L303.799,150.125L303.799,148.5957ZM303.799,151.2441L300.201,151.2441L300.201,152.375L303.799,152.375L303.799,151.2441ZM303.799,153.459L300.201,153.459L300.201,154.6133L303.799,154.6133L303.799,153.459ZM306.014,158.8145L302.703,158.8145L302.703,160.5781L308.826,160.5781L308.826,161.75L295.21500000000003,161.75L295.21500000000003,160.5781L301.332,160.5781L301.332,158.8145L298.02099999999996,158.8145L298.02099999999996,157.625L301.332,157.625L301.332,156.5469L302.703,156.5469L302.703,157.625L306.014,157.625L306.014,158.8145ZM318.875,149.4453L318.875,151.5137L317.51,151.5137L317.51,148.0977L321.75800000000004,148.0977Q321.406,147.0371,321.055,146.1875L322.385,145.8477L323.246,148.0977L327.5,148.0977L327.5,151.5137L326.182,151.5137L326.182,149.4453L318.875,149.4453ZM317.06399999999996,154.2734L315.395,154.8945L315.395,160.1328Q315.395,161.2168,314.996,161.668Q314.598,162.125,313.613,162.125Q312.78700000000003,162.125,312.113,161.9785L311.83799999999997,160.6367Q312.77,160.79489999999998,313.19100000000003,160.79489999999998Q313.654,160.79489999999998,313.83000000000004,160.5254Q314.006,160.2559,314.006,159.6758L314.006,155.42770000000002Q313.93600000000004,155.4629,312.652,155.9668Q311.961,156.2188,311.779,156.3066L311.416,154.9121L312.93399999999997,154.3789Q313.748,154.0742,314.006,153.9863L314.006,150.7988L311.779,150.7988L311.779,149.375L314.006,149.375L314.006,146.082L315.395,146.082L315.395,149.375L317,149.375L317,150.7988L315.395,150.7988L315.395,153.4883L315.951,153.2891Q315.898,153.3066,317.06399999999996,152.9023L317.06399999999996,154.2734ZM323.562,150.7227Q326.727,152.8145,328.02099999999996,153.7578L327.21299999999997,154.877Q326.076,153.9688,322.748,151.8184L323.562,150.7227ZM321.717,151.8184Q320.029,153.4648,317.855,154.9648L317.164,153.8281Q318.916,152.7559,320.81399999999996,150.8867L321.717,151.8184ZM326.81399999999996,156.7227L323,156.7227L323,160.25L327.90999999999997,160.25L327.90999999999997,161.6035L316.918,161.6035L316.918,160.25L321.541,160.25L321.541,156.7227L317.961,156.7227L317.961,155.375L326.81399999999996,155.375L326.81399999999996,156.7227ZM335.879,149.5566L335.879,151.67770000000002L339.875,151.67770000000002L339.875,153.0137L335.879,153.0137L335.879,154.83010000000002L339.301,154.83010000000002L339.301,159.4766Q339.301,160.2734,338.949,160.67770000000002Q338.598,161.082,337.824,161.082Q337.391,161.082,336.564,160.9707L336.312,159.7637Q336.471,159.7812,336.811,159.8281Q337.156,159.875,337.426,159.875Q337.748,159.875,337.883,159.7109Q338.023,159.5469,338.023,159.1191L338.023,156.14260000000002L335.879,156.14260000000002L335.879,162.125L334.531,162.125L334.531,156.14260000000002L332.334,156.14260000000002L332.334,161.1816L331.057,161.1816L331.057,154.83010000000002L334.531,154.83010000000002L334.531,153.0137L330.084,153.0137L330.084,151.67770000000002L334.531,151.67770000000002L334.531,149.5566L332.31600000000003,149.5566Q331.988,150.4004,331.648,151.0684L330.389,150.6523Q331.379,148.4492,331.79499999999996,146.3164L333.125,146.5566Q332.996,147.2656,332.73199999999997,148.2441L334.531,148.2441L334.531,145.6543L335.879,145.6543L335.879,148.2441L339.494,148.2441L339.494,149.5566L335.879,149.5566ZM344.152,145.8945L345.5,145.8945L345.5,159.8516Q345.5,161.05270000000002,345.031,161.5859Q344.568,162.125,343.379,162.125Q342.523,162.125,341.229,161.9609L340.941,160.5957Q342.201,160.7773,342.98,160.7773Q343.613,160.7773,343.883,160.4141Q344.152,160.0508,344.152,159.3184L344.152,145.8945ZM341,147.541L342.354,147.541L342.354,158.375L341,158.375L341,147.541ZM350.785,148.6543Q349.889,150.0547,348.963,151.0273L347.814,150.2539Q348.699,149.2988,349.508,148.0508Q350.316,146.7969,350.82,145.666L352.227,146.0234Q351.957,146.6562,351.541,147.4121L355.754,147.4121L355.754,148.6543L353.146,148.6543L353.691,149.5156L354.031,150.0547L352.877,150.6523L351.635,148.6543L350.785,148.6543ZM357.822,148.6543Q357.535,149.1582,357.055,149.8789L355.789,149.2637Q356.369,148.49020000000002,356.832,147.63479999999998Q357.301,146.7793,357.77,145.666L359.135,146.0059L358.49,147.4121L363.875,147.4121L363.875,148.6543L360.67,148.6543Q361.156,149.3516,361.514,149.9316L360.359,150.5762L360.143,150.2188Q359.996,149.9844,359.662,149.4746Q359.328,148.959,359.117,148.6543L357.822,148.6543ZM363.928,155.375L360.271,155.375L360.271,156.85739999999998L363.318,156.85739999999998L363.318,158.0996L360.271,158.0996L360.271,159.92770000000002Q360.271,160.8125,360.02,161.2695Q359.768,161.73239999999998,359.146,161.9258Q358.525,162.125,357.359,162.125Q356.439,162.125,355.484,162.0137L355.25,160.7773Q356.422,160.9355,357.178,160.9355Q357.898,160.9355,358.221,160.8418Q358.543,160.7422,358.66,160.4785Q358.777,160.2148,358.777,159.5996L358.777,158.0996L348.389,158.0996L348.389,156.85739999999998L358.777,156.85739999999998L358.777,155.375L347.797,155.375L347.797,154.168L355.109,154.168L355.109,152.4336L349.092,152.4336L349.092,151.2441L355.109,151.2441L355.109,150.2012L356.621,150.2012L356.621,151.2441L362.615,151.2441L362.615,152.4336L356.621,152.4336L356.621,154.168L363.928,154.168L363.928,155.375ZM351.488,158.35739999999998Q353.797,159.5586,354.805,160.1797L354.066,161.3164Q352.227,160.2148,350.82,159.4531L351.488,158.35739999999998ZM371.029,154.3379Q371.029,156.875,370.18,159.0254Q369.336,161.1758,367.859,162.66989999999998L366.406,162.66989999999998Q367.859,160.9062,368.645,158.8672Q369.43,156.82229999999998,369.43,154.3379Q369.43,151.8359,368.645,149.7852Q367.859,147.7285,366.406,146L367.859,146Q369.336,147.4941,370.18,149.6387Q371.029,151.7773,371.029,154.3379Z" fill="#DDDDDD" fill-opacity="1"/></g><path d="M0,95.0000000596046L4.03509,95.0000000596046L4.03509,96.5L0,96.5M8.07017,95.0000000596046L16.1403,95.0000000596046L16.1403,96.5L8.07017,96.5M20.1754,95.0000000596046L28.2456,95.0000000596046L28.2456,96.5L20.1754,96.5M32.2807,95.0000000596046L40.3509,95.0000000596046L40.3509,96.5L32.2807,96.5M44.386,95.0000000596046L52.4561,95.0000000596046L52.4561,96.5L44.386,96.5M56.4912,95.0000000596046L64.5614,95.0000000596046L64.5614,96.5L56.4912,96.5M68.5965,95.0000000596046L76.6667,95.0000000596046L76.6667,96.5L68.5965,96.5M80.7017,95.0000000596046L88.7719,95.0000000596046L88.7719,96.5L80.7017,96.5M92.807,95.0000000596046L100.877,95.0000000596046L100.877,96.5L92.807,96.5M104.912,95.0000000596046L112.982,95.0000000596046L112.982,96.5L104.912,96.5M117.018,95.0000000596046L125.088,95.0000000596046L125.088,96.5L117.018,96.5M129.123,95.0000000596046L137.193,95.0000000596046L137.193,96.5L129.123,96.5M141.228,95.0000000596046L149.298,95.0000000596046L149.298,96.5L141.228,96.5M153.333,95.0000000596046L161.403,95.0000000596046L161.403,96.5L153.333,96.5M165.439,95.0000000596046L173.509,95.0000000596046L173.509,96.5L165.439,96.5M177.544,95.0000000596046L185.614,95.0000000596046L185.614,96.5L177.544,96.5M189.649,95.0000000596046L197.719,95.0000000596046L197.719,96.5L189.649,96.5M201.754,95.0000000596046L209.825,95.0000000596046L209.825,96.5L201.754,96.5M213.86,95.0000000596046L221.93,95.0000000596046L221.93,96.5L213.86,96.5M225.965,95.0000000596046L234.035,95.0000000596046L234.035,96.5L225.965,96.5M238.07,95.0000000596046L246.14,95.0000000596046L246.14,96.5L238.07,96.5M250.175,95.0000000596046L258.246,95.0000000596046L258.246,96.5L250.175,96.5M262.281,95.0000000596046L270.351,95.0000000596046L270.351,96.5L262.281,96.5M274.386,95.0000000596046L282.456,95.0000000596046L282.456,96.5L274.386,96.5M286.491,95.0000000596046L294.561,95.0000000596046L294.561,96.5L286.491,96.5M298.596,95.0000000596046L306.667,95.0000000596046L306.667,96.5L298.596,96.5M310.702,95.0000000596046L318.772,95.0000000596046L318.772,96.5L310.702,96.5M322.807,95.0000000596046L330.877,95.0000000596046L330.877,96.5L322.807,96.5M334.912,95.0000000596046L342.982,95.0000000596046L342.982,96.5L334.912,96.5M347.017,95.0000000596046L355.088,95.0000000596046L355.088,96.5L347.017,96.5M359.123,95.0000000596046L367.193,95.0000000596046L367.193,96.5L359.123,96.5M371.228,95.0000000596046L379.298,95.0000000596046L379.298,96.5L371.228,96.5M383.333,95.0000000596046L391.403,95.0000000596046L391.403,96.5L383.333,96.5M395.439,95.0000000596046L403.509,95.0000000596046L403.509,96.5L395.439,96.5M407.544,95.0000000596046L415.614,95.0000000596046L415.614,96.5L407.544,96.5M419.649,95.0000000596046L427.719,95.0000000596046L427.719,96.5L419.649,96.5M431.754,95.0000000596046L439.825,95.0000000596046L439.825,96.5L431.754,96.5M443.86,95.0000000596046L451.93,95.0000000596046L451.93,96.5L443.86,96.5M455.965,95.0000000596046L460,95.0000000596046L460,96.5L455.965,96.5M460,95L460,99L458.5,99L458.5,95M460,103L460,111L458.5,111L458.5,103M460,115L460,123L458.5,123L458.5,115M460,127L460,135L458.5,135L458.5,127M460,139L460,147L458.5,147L458.5,139M460,151L460,159L458.5,159L458.5,151M460,163L460,171L458.5,171L458.5,163M460,175L460,183L458.5,183L458.5,175M460,187L460,191L458.5,191L458.5,187M0,191L0,187L1.5,187L1.5,191M0,183L0,175L1.5,175L1.5,183M0,171L0,163L1.5,163L1.5,171M0,159L0,151L1.5,151L1.5,159M0,147L0,139L1.5,139L1.5,147M0,135L0,127L1.5,127L1.5,135M0,123L0,115L1.5,115L1.5,123M0,111L0,103L1.5,103L1.5,111M0,99L0,95L1.5,95L1.5,99" fill="#DDDDDD" fill-opacity="1"/></g><g style="mix-blend-mode:passthrough"><g style="mix-blend-mode:passthrough"><path d="M177.418,234.8125L175.0684,234.8125L171.56445,232.082Q170.99609,232.1875,170.41016,232.1875Q168.69922,232.1875,167.32227,231.3438Q165.94531,230.5,165.16016,228.918Q164.375,227.3359,164.375,225.2441Q164.375,223.16992,165.1543,221.58789Q165.93359,220.00586,167.29883,219.16211Q168.66992,218.3125,170.375,218.3125Q172.08008,218.3125,173.44531,219.17383Q174.8164,220.0293,175.5957,221.60547Q176.375,223.17578,176.375,225.2559Q176.375,227.4238,175.5488,229.0352Q174.7227,230.6465,173.29883,231.4727L177.418,234.8125ZM165.99219,225.25Q165.99219,226.8555,166.51953,228.0977Q167.04688,229.334,168.04297,230.0254Q169.04492,230.7168,170.375,230.7168Q171.71094,230.7168,172.69531,230.0254Q173.6855,229.334,174.2188,228.0977Q174.7578,226.8555,174.7578,225.25Q174.7578,223.62695,174.2188,222.39062Q173.6855,221.14844,172.69531,220.46875Q171.71094,219.7832,170.375,219.7832Q169.04492,219.7832,168.05469,220.46875Q167.07031,221.14844,166.53125,222.39062Q165.99219,223.62695,165.99219,225.25ZM187.25,218.5L188.8672,218.5L188.8672,226.5332Q188.8672,228.2676,188.2578,229.5508Q187.6484,230.8281,186.4883,231.5078Q185.334,232.1875,183.7344,232.1875Q181.332,232.1875,179.9785,230.6758Q178.625,229.1641,178.625,226.5332L178.625,218.5L180.2422,218.5L180.2422,226.2988Q180.2422,228.4434,181.1328,229.5801Q182.0234,230.7168,183.74020000000002,230.7168Q185.4512,230.7168,186.3477,229.5801Q187.25,228.4434,187.25,226.2988L187.25,218.5ZM193.3672,232L191.75,232L191.75,218.5L193.3672,218.5L193.3672,232ZM201.3828,230.7168Q203.54489999999998,230.7168,204.55270000000002,228.666L205.8477,229.4395Q205.2969,230.7344,204.1309,231.4609Q202.9707,232.1875,201.4531,232.1875Q199.7891,232.1875,198.4297,231.3086Q197.0703,230.4297,196.2852,228.8477Q195.5,227.2656,195.5,225.2441Q195.5,223.22266,196.2852,221.64062Q197.0703,220.05859,198.4297,219.18555Q199.7891,218.3125,201.4531,218.3125Q202.9707,218.3125,204.1309,219.04492Q205.2969,219.77148,205.8477,221.06055L204.55270000000002,221.83398Q203.54489999999998,219.7832,201.3828,219.7832Q200.123,219.7832,199.1504,220.46875Q198.1836,221.1543,197.6504,222.39648Q197.1172,223.63281,197.1172,225.2441Q197.1172,226.8496,197.6504,228.1035Q198.1836,229.3516,199.1504,230.0371Q200.123,230.7168,201.3828,230.7168ZM220.0156,228.7422Q221.2578,230.5586,223.49020000000002,232.2871L222.5938,233.4941Q220.502,231.8008,219.2246,229.9844Q218.05270000000002,231.6367,215.9668,233.418L215.0645,232.2344Q217.2441,230.4707,218.416,228.666Q217.2793,226.5156,216.6875,223.5332Q216.5586,223.78516,216.4414,223.97852Q216.3242,224.166,216.2539,224.2891L215.2637,223.20508Q216.125,221.81641,216.793,220.16406Q217.4609,218.51172,217.8008,216.89453L219.1543,217.12305Q218.9023,218.32422,218.3809,219.8418L223.2031,219.8418L223.2031,221.2832L221.9434,221.2832Q221.709,223.73828,221.2578,225.5195Q220.8066,227.3008,220.0156,228.7422ZM206.9961,224.9277Q207.9336,224.3594,208.7891,223.58008Q209.6445,222.80078,210.29489999999998,221.91016L207.44729999999998,221.91016L207.44729999999998,220.72656L211.0156,220.72656L211.0156,217L212.293,217L212.293,220.72656L215.4453,220.72656L215.4453,221.91016L212.293,221.91016L212.293,222.16211L215.3164,224.2129L214.6484,225.209Q213.6992,224.418,212.293,223.47461L212.293,225.3145L211.0156,225.3145L211.0156,222.70117Q210.3828,223.63281,209.5273,224.4883Q208.6719,225.3438,207.6992,226L206.9961,224.9277ZM209.2871,220.4043Q208.75979999999998,219.51953,207.6816,218.00781L208.584,217.39844L210.25979999999998,219.77148L209.2871,220.4043ZM215.6797,218.04297Q214.86520000000002,219.23242,213.9102,220.49219L212.9785,219.82422Q213.9863,218.49414,214.707,217.41602L215.6797,218.04297ZM217.60739999999998,221.72852Q217.877,223.46289,218.24020000000002,224.8047Q218.6094,226.1465,219.1719,227.3008Q219.7285,226.0938,220.08010000000002,224.6289Q220.4375,223.16406,220.6309,221.2832L217.8008,221.2832L217.60739999999998,221.72852ZM214.49020000000002,232.5742Q213.6641,232.05270000000002,212.2578,231.332Q210.5996,232.4688,207.48239999999998,233.459L206.8906,232.2344Q209.5039,231.4785,210.92770000000002,230.70510000000002Q209.5918,230.0898,208.959,229.8203L208.2383,229.498Q208.83010000000002,228.543,209.1758,227.875L207.125,227.875L207.125,226.709L209.7734,226.709Q210.1484,225.7715,210.25979999999998,225.4492L211.5898,225.8125Q211.373,226.4219,211.25,226.709L215.0469,226.709L215.0469,227.8223Q214.3438,229.4219,213.3359,230.4355Q214.168,230.8281,215.1758,231.41989999999998L214.49020000000002,232.5742ZM210.0781,229.0117Q210.4004,229.1523,211.3379,229.5332L212.1465,229.873Q213.0488,229.1172,213.5879,227.875L210.6934,227.875Q210.29489999999998,228.6309,210.0781,229.0117ZM230.7148,225.3203L228.9922,226.0469L228.9922,231.2266Q228.9922,232.0059,228.7988,232.4043Q228.6113,232.80270000000002,228.1602,232.9609Q227.7148,233.125,226.8711,233.125Q226.5078,233.125,225.752,233.0488L225.51760000000002,231.7188Q226.1094,231.8242,226.7188,231.8242Q227.24020000000002,231.8242,227.42770000000002,231.60739999999998Q227.6211,231.38479999999998,227.6211,230.7754L227.6211,226.5684L225.44729999999998,227.377L225.14260000000002,226.0293Q226.2207,225.6777,227.6211,225.1562L227.6211,221.61133L225.5,221.61133L225.5,220.31055L227.6211,220.31055L227.6211,217.12305L228.9922,217.12305L228.9922,220.31055L230.6094,220.31055L230.6094,221.61133L228.9922,221.61133L228.9922,224.5996Q230.0645,224.0957,230.4629,223.88477L230.7148,225.3203ZM241.6191,225.625L237.7285,225.625L237.7285,227.4121L240.5,227.4121L240.5,233.125L239.1523,233.125L239.1523,232.4395L234.7227,232.4395L234.7227,233.14260000000002L233.375,233.14260000000002L233.375,227.4121L236.375,227.4121L236.375,225.625L232.63670000000002,225.625Q232.5488,228.1152,232.1621,229.7734Q231.7812,231.4316,230.92579999999998,233.125L229.6191,232.4922Q230.38670000000002,231.0977,230.7793,229.8672Q231.17770000000002,228.6309,231.33589999999998,227.0781Q231.5,225.5254,231.5,223.09375L231.5,218.00781L240.8105,218.00781L240.8105,222.36719L237.7285,222.36719L237.7285,224.4004L241.6191,224.4004L241.6191,225.625ZM239.4219,221.125L239.4219,219.25L232.86520000000002,219.25L232.86520000000002,221.125L239.4219,221.125ZM232.86520000000002,224.4004L236.375,224.4004L236.375,222.36719L232.86520000000002,222.36719L232.86520000000002,223.23438L232.86520000000002,224.4004ZM234.7227,231.25L239.1523,231.25L239.1523,228.6367L234.7227,228.6367L234.7227,231.25ZM259.1621,228.7539Q259.127,229.3164,259.0566,229.9668Q258.9863,230.6113,258.91020000000003,231.0977Q258.7871,231.9121,258.53520000000003,232.2988Q258.28319999999997,232.6855,257.7559,232.8496Q257.2285,233.0137,256.1621,233.084Q254.334,233.2129,251.9844,233.2129Q249.7754,233.2129,248.0352,233.084Q247.0273,233.0078,246.4707,232.8086Q245.91410000000002,232.6094,245.6445,232.1113Q245.375,231.6133,245.375,230.6758L245.375,223.00586Q244.83589999999998,223.63281,244.3496,224.1191L243.2305,222.9707Q244.5488,221.72852,245.5918,220.1582Q246.63479999999998,218.58203,247.209,216.96484L248.75,217.45117Q248.4746,218.13672,248.1055,218.875L257.6855,218.875Q257.7031,219.42578,257.7031,220.58008Q257.7031,222.33203,257.6328,224.125Q257.5625,225.918,257.4512,227.1719Q257.3633,228.1328,257.082,228.6543Q256.8066,229.1758,256.2734,229.3926Q255.7461,229.6035,254.8672,229.6035Q254.58010000000002,229.6035,253.57229999999998,229.5273Q253.4082,229.5273,252.9805,229.4922L252.7988,228.1035Q254.0586,228.2148,254.6094,228.2324Q255.166,228.2676,255.4355,228.1387Q255.71089999999998,228.0039,255.82229999999998,227.6875Q255.9395,227.3711,256.0156,226.6973Q256.2676,223.94922,256.2676,221.40625Q256.2676,220.61523,256.25,220.24609L247.3906,220.24609Q246.7227,221.31836,245.99020000000002,222.25L253.25,222.25L253.25,227.7402L246.7637,227.7402L246.7637,230.2773Q246.7637,230.8691,246.9043,231.1504Q247.05079999999998,231.4258,247.3672,231.5312Q247.6895,231.6367,248.39260000000002,231.6953Q250.04489999999998,231.8242,252.17770000000002,231.8242Q254.334,231.8242,255.9688,231.6895Q256.6309,231.6309,256.9238,231.5137Q257.22270000000003,231.3965,257.3574,231.1211Q257.4922,230.8398,257.5625,230.2305Q257.6152,229.832,257.6562,229.2637Q257.7031,228.6895,257.7031,228.3379L259.1621,228.7539ZM251.8613,226.375L251.8613,223.65625L246.7637,223.65625L246.7637,226.375L251.8613,226.375ZM266.146,217.43359Q265.531,219.44336,264.74,221.25977L264.74,233.125L263.375,233.125L263.375,223.95508Q262.6719,225.1562,261.752,226.334L260.8906,225.0801Q261.9688,223.60938,263.0645,221.33594Q264.166,219.0625,264.688,217.05273L266.146,217.43359ZM273.131,226.75Q274.824,229.1406,277.719,230.8809L276.928,232.1523Q274.174,230.2363,272.34000000000003,227.5879L272.34000000000003,233.0547L270.986,233.0547L270.986,227.4824Q270.055,228.8945,268.883,230.043Q267.711,231.1855,266.199,232.2344L265.408,231.0332Q266.902,230.0605,268.033,229.041Q269.17,228.0215,270.09000000000003,226.75L265.98199999999997,226.75L265.98199999999997,225.4375L270.986,225.4375L270.986,223.59766L267.172,223.59766L267.172,217.87891L276.172,217.87891L276.172,223.59766L272.34000000000003,223.59766L272.34000000000003,225.4375L277.379,225.4375L277.379,226.75L273.131,226.75ZM274.748,219.25L268.596,219.25L268.596,222.25L274.748,222.25L274.748,219.25ZM294.875,219.21484L294.875,225.9004L287.416,225.9004Q287.34000000000003,227.6465,287.105,228.8535Q286.877,230.0547,286.432,231.1035Q285.986,232.1523,285.178,233.4121L283.842,232.6387Q284.75,231.2852,285.195,230.1895Q285.646,229.0879,285.828,227.6816Q286.01,226.2754,286.01,223.97266L286.01,219.21484L290.006,219.21484Q289.361,217.90234,288.93899999999996,217.18164L290.322,216.625Q290.615,217.14648,290.973,217.84961Q291.336,218.54688,291.64599999999996,219.21484L294.875,219.21484ZM285.137,225.291Q283.96500000000003,225.7715,283.139,226.0762L283.139,231.3496Q283.139,232.082,282.957,232.4512Q282.781,232.8262,282.312,232.9727Q281.844,233.125,280.924,233.125Q280.49,233.125,279.594,233.0488L279.307,231.666Q280.045,231.7715,280.783,231.7715Q281.375,231.7715,281.551,231.60739999999998Q281.73199999999997,231.4375,281.73199999999997,230.8398L281.73199999999997,226.5918L280.924,226.873L279.324,227.4238L278.996,226.0234Q280.18600000000004,225.6426,281.73199999999997,225.0918L281.73199999999997,221.5L279.5,221.5L279.5,220.09961L281.73199999999997,220.09961L281.73199999999997,216.91211L283.139,216.91211L283.139,220.09961L285.031,220.09961L285.031,221.5L283.139,221.5L283.139,224.5703L285.049,223.80859L285.137,225.291ZM287.451,224.5L293.486,224.5L293.486,220.58594L287.451,220.58594L287.451,223.80859L287.451,224.5Z" fill="#DDDDDD" fill-opacity="1"/></g><path d="M0,206L0,198L1.5,198L1.5,206L0,206ZM0,218L0,210L1.5,210L1.5,218L0,218ZM0,230L0,222L1.5,222L1.5,230L0,230ZM0,242L0,234L1.5,234L1.5,242L0,242ZM0,254L0,246L1.5,246L1.5,254L0,254ZM16.1401,262L8.06989,262L8.06989,260.5L16.1401,260.5L16.1401,262ZM28.2454,262L20.1752,262L20.1752,260.5L28.2454,260.5L28.2454,262ZM40.3506,262L32.2805,262L32.2805,260.5L40.3506,260.5L40.3506,262ZM52.4559,262L44.3857,262L44.3857,260.5L52.4559,260.5L52.4559,262ZM64.5612,262L56.491,262L56.491,260.5L64.5612,260.5L64.5612,262ZM76.6665,262L68.5963,262L68.5963,260.5L76.6665,260.5L76.6665,262ZM88.7718,262L80.7016,262L80.7016,260.5L88.7718,260.5L88.7718,262ZM100.877,262L92.8069,262L92.8069,260.5L100.877,260.5L100.877,262ZM112.982,262L104.912,262L104.912,260.5L112.982,260.5L112.982,262ZM125.088,262L117.017,262L117.017,260.5L125.088,260.5L125.088,262ZM137.193,262L129.123,262L129.123,260.5L137.193,260.5L137.193,262ZM149.298,262L141.228,262L141.228,260.5L149.298,260.5L149.298,262ZM161.404,262L153.333,262L153.333,260.5L161.404,260.5L161.404,262ZM173.509,262L165.439,262L165.439,260.5L173.509,260.5L173.509,262ZM185.614,262L177.544,262L177.544,260.5L185.614,260.5L185.614,262ZM197.719,262L189.649,262L189.649,260.5L197.719,260.5L197.719,262ZM209.825,262L201.754,262L201.754,260.5L209.825,260.5L209.825,262ZM221.93,262L213.86,262L213.86,260.5L221.93,260.5L221.93,262ZM234.035,262L225.965,262L225.965,260.5L234.035,260.5L234.035,262ZM246.14,262L238.07,262L238.07,260.5L246.14,260.5L246.14,262ZM258.246,262L250.175,262L250.175,260.5L258.246,260.5L258.246,262ZM270.351,262L262.281,262L262.281,260.5L270.351,260.5L270.351,262ZM282.456,262L274.386,262L274.386,260.5L282.456,260.5L282.456,262ZM294.561,262L286.491,262L286.491,260.5L294.561,260.5L294.561,262ZM306.667,262L298.596,262L298.596,260.5L306.667,260.5L306.667,262ZM318.772,262L310.702,262L310.702,260.5L318.772,260.5L318.772,262ZM330.877,262L322.807,262L322.807,260.5L330.877,260.5L330.877,262ZM342.982,262L334.912,262L334.912,260.5L342.982,260.5L342.982,262ZM355.088,262L347.018,262L347.018,260.5L355.088,260.5L355.088,262ZM367.193,262L359.123,262L359.123,260.5L367.193,260.5L367.193,262ZM379.298,262L371.228,262L371.228,260.5L379.298,260.5L379.298,262ZM391.404,262L383.333,262L383.333,260.5L391.404,260.5L391.404,262ZM403.509,262L395.439,262L395.439,260.5L403.509,260.5L403.509,262ZM415.614,262L407.544,262L407.544,260.5L415.614,260.5L415.614,262ZM427.719,262L419.649,262L419.649,260.5L427.719,260.5L427.719,262ZM439.825,262L431.754,262L431.754,260.5L439.825,260.5L439.825,262ZM451.93,262L443.86,262L443.86,260.5L451.93,260.5L451.93,262ZM460,246L460,254L458.5,254L458.5,246L460,246ZM460,234L460,242L458.5,242L458.5,234L460,234ZM460,222L460,230L458.5,230L458.5,222L460,222ZM460,210L460,218L458.5,218L458.5,210L460,210ZM460,198L460,206L458.5,206L458.5,198L460,198ZM443.86,190L451.93,190L451.93,191.5L443.86,191.5L443.86,190ZM431.755,190L439.825,190L439.825,191.5L431.755,191.5L431.755,190ZM419.649,190L427.72,190L427.72,191.5L419.649,191.5L419.649,190ZM407.544,190L415.614,190L415.614,191.5L407.544,191.5L407.544,190ZM395.439,190L403.509,190L403.509,191.5L395.439,191.5L395.439,190ZM383.333,190L391.404,190L391.404,191.5L383.333,191.5L383.333,190ZM371.228,190L379.298,190L379.298,191.5L371.228,191.5L371.228,190ZM359.123,190L367.193,190L367.193,191.5L359.123,191.5L359.123,190ZM347.018,190L355.088,190L355.088,191.5L347.018,191.5L347.018,190ZM334.912,190L342.983,190L342.983,191.5L334.912,191.5L334.912,190ZM322.807,190L330.877,190L330.877,191.5L322.807,191.5L322.807,190ZM310.702,190L318.772,190L318.772,191.5L310.702,191.5L310.702,190ZM298.596,190L306.667,190L306.667,191.5L298.596,191.5L298.596,190ZM286.491,190L294.561,190L294.561,191.5L286.491,191.5L286.491,190ZM274.386,190L282.456,190L282.456,191.5L274.386,191.5L274.386,190ZM262.281,190L270.351,190L270.351,191.5L262.281,191.5L262.281,190ZM250.175,190L258.246,190L258.246,191.5L250.175,191.5L250.175,190ZM238.07,190L246.14,190L246.14,191.5L238.07,191.5L238.07,190ZM225.965,190L234.035,190L234.035,191.5L225.965,191.5L225.965,190ZM213.86,190L221.93,190L221.93,191.5L213.86,191.5L213.86,190ZM201.754,190L209.825,190L209.825,191.5L201.754,191.5L201.754,190ZM189.649,190L197.719,190L197.719,191.5L189.649,191.5L189.649,190ZM177.544,190L185.614,190L185.614,191.5L177.544,191.5L177.544,190ZM165.439,190L173.509,190L173.509,191.5L165.439,191.5L165.439,190ZM153.333,190L161.403,190L161.403,191.5L153.333,191.5L153.333,190ZM141.228,190L149.298,190L149.298,191.5L141.228,191.5L141.228,190ZM129.123,190L137.193,190L137.193,191.5L129.123,191.5L129.123,190ZM117.018,190L125.088,190L125.088,191.5L117.018,191.5L117.018,190ZM104.912,190L112.982,190L112.982,191.5L104.912,191.5L104.912,190ZM92.807,190L100.877,190L100.877,191.5L92.807,191.5L92.807,190ZM80.7018,190L88.7719,190L88.7719,191.5L80.7018,191.5L80.7018,190ZM68.5965,190L76.6667,190L76.6667,191.5L68.5965,191.5L68.5965,190ZM56.4912,190L64.5614,190L64.5614,191.5L56.4912,191.5L56.4912,190ZM44.386,190L52.4561,190L52.4561,191.5L44.386,191.5L44.386,190ZM32.2807,190L40.3509,190L40.3509,191.5L32.2807,191.5L32.2807,190ZM20.1754,190L28.2456,190L28.2456,191.5L20.1754,191.5L20.1754,190ZM8.07018,190L16.1404,190L16.1404,191.5L8.07018,191.5L8.07018,190ZM4.03509,190L4.03509,191.5L1.5,191.5L1.5,194L0,194L0,190L4.03509,190ZM455.965,190L460,190L460,194L458.5,194L458.5,191.5L455.965,191.5L455.965,190ZM460,258L460,262L455.965,262L455.965,260.5L458.5,260.5L458.5,258L460,258ZM4.03479,262L0,262L0,258L1.5,258L1.5,260.5L4.03479,260.5L4.03479,262Z" fill-rule="evenodd" fill="#DDDDDD" fill-opacity="1"/></g><g style="mix-blend-mode:passthrough"><g style="mix-blend-mode:passthrough"><path d="M182,28.5L191.75,28.5L191.75,29.9707L187.74219,29.9707L187.74219,42L186.125,42L186.125,29.9707L182,29.9707L182,28.5ZM193.625,28.5L195.2422,28.5L195.2422,40.5293L201.6875,40.5293L201.6875,42L193.625,42L193.625,28.5ZM212,38.25Q212,39.4102,211.4785,40.3066Q210.957,41.1973,209.9434,41.6953Q208.9355,42.1875,207.55270000000002,42.1875Q205.6191,42.1875,204.248,41.2793Q202.877,40.3652,202.4434,38.8535L203.7031,38.0742Q204.2012,39.3516,205.1738,40.037099999999995Q206.1465,40.7168,207.5938,40.7168Q208.9121,40.7168,209.6445,40.1309Q210.3828,39.5391,210.3828,38.4902Q210.3828,37.6406,209.9258,37.1133Q209.4688,36.5859,208.8008,36.293Q208.1387,36,206.9727,35.6543Q205.67770000000002,35.2617,204.8867,34.916Q204.0957,34.5645,203.54489999999998,33.86133Q203,33.1582,203,32.01562Q203,30.86133,203.58010000000002,30.02344Q204.1602,29.17969,205.1738,28.74609Q206.1934,28.3125,207.459,28.3125Q209.2285,28.3125,210.3184,29.10352Q211.4141,29.88867,211.79489999999998,31.0957L210.55270000000002,31.86914Q210.1309,30.89062,209.3809,30.33984Q208.6309,29.7832,207.3945,29.7832Q206.13479999999998,29.7832,205.373,30.3457Q204.6172,30.90234,204.6172,31.8457Q204.6172,32.54297,205.0273,32.98828Q205.4375,33.42773,206.05270000000002,33.68555Q206.6738,33.94336,207.7578,34.2598Q209.123,34.6641,209.9609,35.0508Q210.7988,35.4316,211.3965,36.2109Q212,36.9844,212,38.25ZM188.48047,54.4102Q189.2715,53.5664,189.7988,52.7402Q190.332,51.914100000000005,190.8008,50.9238L191.9375,51.2344Q191.6504,51.9316,191.2871,52.5469L195.9629,52.5469L195.9629,53.5723L194.7383,53.5723Q194.4336,54.474599999999995,194.0645,55.1602Q193.6953,55.8398,193.1738,56.3848Q194.252,56.9941,196.1328,57.5098L195.5469,58.6055Q193.502,57.9785,192.2246,57.1934Q191.1113,57.9316,189.1309,58.5293L188.5332,57.4336Q190.332,56.9355,191.2344,56.4199Q190.4082,55.6172,189.8457,54.474599999999995Q189.5586,54.8672,189.1484,55.3301L188.48047,54.4102ZM183.6582,53.4844L182.45117,53.4844L182.45117,52.9805L180.05469,52.9805L180.05469,52.043L182.45117,52.043L182.45117,51L183.6582,51L183.6582,52.043L185.70898,52.043L185.70898,51L186.93359,51L186.93359,52.043L189.2012,52.043L189.2012,52.9805L186.93359,52.9805L186.93359,53.5898L185.70898,53.5898L185.70898,52.9805L183.6582,52.9805L183.6582,53.4844ZM181.80078,54.75Q180.97461,55.8691,180.03711,56.5898L179.568359,55.6465Q180.88086,54.5449,181.61914,53.3789L182.57422,53.6777L182.39844,53.9414L188.31641,53.9414Q188.31641,55.3652,188.17578,57.0762Q188.10547,57.8965,187.75391,58.1836Q187.40234,58.4648,186.48242,58.5234Q186.10742,58.541,185.62109,58.4824L185.43945,57.6387Q185.85547,57.6914,186.17773,57.6914Q186.6582,57.6914,186.81641,57.5625Q186.98047,57.4277,187.0332,56.9297Q187.16211,55.810500000000005,187.17969,54.75L181.80078,54.75ZM190.6191,53.5723L190.5605,53.6602Q191.1406,54.9375,192.166,55.751999999999995Q192.6172,55.335899999999995,192.9277,54.8086Q193.2441,54.2812,193.4785,53.5723L190.6191,53.5723ZM185.31055,55.5L185.31055,57.9141L181.60156,57.9141L181.60156,55.5L185.31055,55.5ZM184.32031,56.2207L182.60938,56.2207L182.60938,57.1934L184.32031,57.1934L184.32031,56.2207ZM188.55078,58.2832Q188.7207,58.5879,189.0957,59.25L196.0918,59.25L196.0918,60.1875L179.75,60.1875L179.75,59.25L187.61328,59.25Q187.43164,58.9102,187.19727,58.6055L188.55078,58.2832ZM181.98242,61.0664L193.8945,61.0664L193.8945,61.875L181.98242,61.875L181.98242,61.0664ZM193.8945,63.375L181.98242,63.375L181.98242,62.4961L193.8945,62.4961L193.8945,63.375ZM183.04297,67.125L181.76562,67.125L181.76562,64.0664L194.1113,64.0664L194.1113,67.10159999999999L192.834,67.10159999999999L192.834,66.77340000000001L183.04297,66.77340000000001L183.04297,67.125ZM192.834,65.8945L192.834,64.875L183.04297,64.875L183.04297,65.8945L192.834,65.8945ZM207.125,57.4746L214.1445,57.4746L214.1445,58.875L198.125,58.875L198.125,57.4746L205.6309,57.4746L205.6309,54.75L201.4355,54.75Q200.8262,55.916,200.1406,56.8711L198.8633,56.0098Q199.8008,54.773399999999995,200.39260000000002,53.6543Q200.9844,52.5293,201.418,51.2051L202.7715,51.6914Q202.4609,52.6113,202.1211,53.3672L205.6309,53.3672L205.6309,50.900400000000005L207.125,50.900400000000005L207.125,53.3672L213.0664,53.3672L213.0664,54.75L207.125,54.75L207.125,57.4746ZM201.6172,67.125L200.1406,67.125L200.1406,60.75L212.0762,60.75L212.0762,67.125L210.582,67.125L210.582,66.375L201.6172,66.375L201.6172,67.125ZM210.582,64.9863L210.582,62.1504L201.6172,62.1504L201.6172,64.9863L210.582,64.9863Z" fill="#DDDDDD" fill-opacity="1"/></g><path d="M131,0L135,0L135,1.5L131,1.5M139,0L147,0L147,1.5L139,1.5M151,0L159,0L159,1.5L151,1.5M163,0L171,0L171,1.5L163,1.5M175,0L183,0L183,1.5L175,1.5M187,0L195,0L195,1.5L187,1.5M199,0L207,0L207,1.5L199,1.5M211,0L219,0L219,1.5L211,1.5M223,0L231,0L231,1.5L223,1.5M235,0L243,0L243,1.5L235,1.5M247,0L255,0L255,1.5L247,1.5M259,0L263,0L263,1.5L259,1.5M263,0L263,4L261.5,4L261.5,0M263,8L263,16L261.5,16L261.5,8M263,20L263,28L261.5,28L261.5,20M263,32L263,40L261.5,40L261.5,32M263,44L263,52L261.5,52L261.5,44M263,56L263,64L261.5,64L261.5,56M263,68L263,76L261.5,76L261.5,68M263,80L263,88L261.5,88L261.5,80M263,92L263,96L261.5,96L261.5,92" fill="#DDDDDD" fill-opacity="1"/></g><g style="mix-blend-mode:passthrough"><g style="mix-blend-mode:passthrough"><path d="M346.918,44.8125L344.5684,44.8125L341.06445,42.082Q340.49609,42.1875,339.91016,42.1875Q338.19922,42.1875,336.82227,41.3438Q335.44531,40.5,334.66016,38.918Q333.875,37.3359,333.875,35.2441Q333.875,33.16992,334.6543,31.58789Q335.43359,30.00586,336.79883,29.16211Q338.16992,28.3125,339.875,28.3125Q341.58008,28.3125,342.94531,29.17383Q344.3164,30.0293,345.0957,31.60547Q345.875,33.17578,345.875,35.2559Q345.875,37.4238,345.0488,39.0352Q344.2227,40.6465,342.79883,41.4727L346.918,44.8125ZM335.49219,35.25Q335.49219,36.8555,336.01953,38.0977Q336.54688,39.334,337.54297,40.025400000000005Q338.54492,40.7168,339.875,40.7168Q341.21094,40.7168,342.19531,40.025400000000005Q343.1855,39.334,343.7188,38.0977Q344.2578,36.8555,344.2578,35.25Q344.2578,33.62695,343.7188,32.39062Q343.1855,31.14844,342.19531,30.46875Q341.21094,29.7832,339.875,29.7832Q338.54492,29.7832,337.55469,30.46875Q336.57031,31.14844,336.03125,32.39062Q335.49219,33.62695,335.49219,35.25ZM356.75,28.5L358.3672,28.5L358.3672,36.5332Q358.3672,38.2676,357.7578,39.5508Q357.1484,40.8281,355.9883,41.5078Q354.834,42.1875,353.2344,42.1875Q350.832,42.1875,349.4785,40.675799999999995Q348.125,39.1641,348.125,36.5332L348.125,28.5L349.7422,28.5L349.7422,36.2988Q349.7422,38.4434,350.6328,39.5801Q351.5234,40.7168,353.2402,40.7168Q354.9512,40.7168,355.8477,39.5801Q356.75,38.4434,356.75,36.2988L356.75,28.5ZM362.8672,42L361.25,42L361.25,28.5L362.8672,28.5L362.8672,42ZM370.8828,40.7168Q373.0449,40.7168,374.0527,38.666L375.34770000000003,39.4395Q374.7969,40.7344,373.6309,41.460899999999995Q372.4707,42.1875,370.9531,42.1875Q369.2891,42.1875,367.9297,41.3086Q366.5703,40.4297,365.78520000000003,38.8477Q365,37.2656,365,35.2441Q365,33.22266,365.78520000000003,31.64062Q366.5703,30.05859,367.9297,29.18555Q369.2891,28.3125,370.9531,28.3125Q372.4707,28.3125,373.6309,29.04492Q374.7969,29.77148,375.34770000000003,31.06055L374.0527,31.83398Q373.0449,29.7832,370.8828,29.7832Q369.623,29.7832,368.6504,30.46875Q367.6836,31.1543,367.1504,32.39648Q366.6172,33.63281,366.6172,35.2441Q366.6172,36.8496,367.1504,38.1035Q367.6836,39.3516,368.6504,40.037099999999995Q369.623,40.7168,370.8828,40.7168ZM392.6211,28.875L392.6211,30.29883L379.625,30.29883L379.625,33.83789Q379.625,35.9766,379.5078,37.4473Q379.3906,38.918,379.0215,40.3652Q378.65229999999997,41.8125,377.8965,43.3711L376.6016,42.5977Q377.3047,41.1797,377.6562,39.8496Q378.0078,38.5195,378.1133,37.1836Q378.2246,35.8418,378.2246,33.88477L378.2246,28.875L384.8633,28.875Q384.4883,27.88477,384.2012,27.25781L385.6367,26.8418Q386.123,27.86719,386.4863,28.875L392.6211,28.875ZM386.0527,38.7012Q385.8535,37.0898,385.4316,35.0859Q385.0098,33.08203,384.6289,31.96875L386.0176,31.69922Q386.3574,32.76562,386.791,34.7578Q387.2246,36.75,387.459,38.3438L386.0527,38.7012ZM392.8027,41.25L392.8027,42.6328L379.7539,42.6328L379.7539,41.25L387.1484,41.25Q388.1211,39.293,388.9824,36.6973Q389.8496,34.1016,390.2656,32.00391L391.666,32.37891Q391.291,34.1895,390.4238,36.7441Q389.5625,39.293,388.66020000000003,41.25L392.8027,41.25ZM382.7949,39.7266Q382.3965,38.0391,381.7285,35.9297Q381.0664,33.82031,380.5449,32.68945L381.8223,32.29102Q382.3438,33.45703,383.03520000000003,35.543Q383.7324,37.623,384.1074,39.2754L382.7949,39.7266ZM396.5,27.82617L409.9355,27.82617L409.9355,41.0332Q409.9355,42.2051,409.5078,42.6445Q409.0801,43.0898,408.0254,43.125Q406.9414,43.166,405.7988,43.0195L405.541,41.537099999999995Q406.9004,41.724599999999995,407.5449,41.724599999999995Q408.1309,41.724599999999995,408.3125,41.4727Q408.5,41.2207,408.5,40.4941L408.5,37.875L403.9238,37.875L403.9238,43.125L402.5,43.125L402.5,37.875L397.9062,37.875Q397.77729999999997,39.3867,397.3906,40.664100000000005Q397.0039,41.9414,396.2129,43.523399999999995L394.8828,42.949200000000005Q395.6035,41.537099999999995,395.9316,40.5703Q396.2656,39.6035,396.3828,38.4551Q396.5,37.3008,396.5,35.2441L396.5,27.82617ZM402.5,32.25L402.5,29.25L397.9766,29.25L397.9766,32.25L402.5,32.25ZM403.9238,32.25L408.5,32.25L408.5,29.25L403.9238,29.25L403.9238,32.25ZM397.9766,36.4688L402.5,36.4688L402.5,33.65625L397.9766,33.65625L397.9766,35.666L397.9766,36.4688ZM403.9238,33.65625L403.9238,36.4688L408.5,36.4688L408.5,33.65625L403.9238,33.65625ZM347.1582,59.3379Q347.1582,56.7949,348.002,54.6445Q348.8516,52.4941,350.3281,51L351.7812,51Q350.3281,52.7637,349.543,54.8086Q348.7578,56.8535,348.7578,59.3379Q348.7578,61.8398,349.543,63.8906Q350.3281,65.9414,351.7812,67.6699L350.3281,67.6699Q348.8516,66.17580000000001,348.002,64.03710000000001Q347.1582,61.8926,347.1582,59.3379ZM359.2812,56.4375Q360.7285,56.4375,361.6426,57.4277Q362.5625,58.418,362.5625,60.2344L362.5625,66L360.9453,66L360.9453,60.6738Q360.9453,59.3438,360.4238,58.6289Q359.9023,57.9082,358.8828,57.9082Q358.2207,57.9082,357.6289,58.2246Q357.043,58.5352,356.6738,59.1562Q356.3047,59.7773,356.3047,60.6914L356.3047,66L354.6875,66L354.6875,52.125L356.3047,52.125L356.3047,58.0723Q356.791,57.2695,357.5586,56.8535Q358.332,56.4375,359.2812,56.4375ZM370.6484,58.7227Q371.8672,59.1094,372.46479999999997,59.9824Q373.0625,60.8555,373.0625,62.1387Q373.0625,63.3984,372.4824,64.32419999999999Q371.9082,65.2441,370.9414,65.7188Q369.9805,66.1875,368.8379,66.1875Q367.3906,66.1875,366.166,65.4316Q364.9414,64.6699,364.5195,63.2168L365.8145,62.4492Q366.1719,63.5684,367.0332,64.1426Q367.8945,64.7168,368.8906,64.7168Q369.9863,64.7168,370.7129,64.03710000000001Q371.4453,63.3516,371.4453,62.1328Q371.4453,59.625,368.0176,59.625L367.4375,59.625L367.4375,58.1543L368.0762,58.1543Q369.418,58.1543,370.1152,57.5039Q370.8125,56.8535,370.8125,55.834Q370.8125,54.873000000000005,370.2207,54.3281Q369.6289,53.7832,368.6855,53.7832Q367.7129,53.7832,367.0332,54.363299999999995Q366.3594,54.9434,365.9961,56.0332L364.7012,55.289100000000005Q365.1289,53.8184,366.2012,53.0684Q367.2793,52.3125,368.7266,52.3125Q370.40229999999997,52.3125,371.416,53.273399999999995Q372.4297,54.2344,372.4297,55.7988Q372.4297,56.7949,371.9902,57.5625Q371.5566,58.3242,370.6484,58.7227ZM377.59770000000003,53.6543Q376.7012,55.0547,375.7754,56.0273L374.627,55.2539Q375.5117,54.2988,376.3203,53.050799999999995Q377.1289,51.7969,377.6328,50.666L379.0391,51.023399999999995Q378.7695,51.6562,378.3535,52.412099999999995L382.5664,52.412099999999995L382.5664,53.6543L379.959,53.6543L380.5039,54.5156L380.8438,55.0547L379.6895,55.6523L378.4473,53.6543L377.59770000000003,53.6543ZM384.6348,53.6543Q384.34770000000003,54.1582,383.8672,54.8789L382.6016,54.2637Q383.1816,53.4902,383.6445,52.6348Q384.1133,51.7793,384.582,50.666L385.9473,51.0059L385.3027,52.412099999999995L390.6875,52.412099999999995L390.6875,53.6543L387.4824,53.6543Q387.9688,54.351600000000005,388.3262,54.9316L387.1719,55.5762L386.9551,55.2188Q386.8086,54.9844,386.4746,54.474599999999995Q386.1406,53.959,385.9297,53.6543L384.6348,53.6543ZM390.7402,60.375L387.084,60.375L387.084,61.8574L390.1309,61.8574L390.1309,63.0996L387.084,63.0996L387.084,64.9277Q387.084,65.8125,386.832,66.2695Q386.5801,66.7324,385.959,66.92580000000001Q385.3379,67.125,384.1719,67.125Q383.252,67.125,382.2969,67.0137L382.0625,65.7773Q383.2344,65.93549999999999,383.9902,65.93549999999999Q384.7109,65.93549999999999,385.0332,65.8418Q385.3555,65.7422,385.47270000000003,65.4785Q385.58979999999997,65.2148,385.58979999999997,64.59960000000001L385.58979999999997,63.0996L375.2012,63.0996L375.2012,61.8574L385.58979999999997,61.8574L385.58979999999997,60.375L374.6094,60.375L374.6094,59.168L381.9219,59.168L381.9219,57.4336L375.9043,57.4336L375.9043,56.2441L381.9219,56.2441L381.9219,55.2012L383.4336,55.2012L383.4336,56.2441L389.4277,56.2441L389.4277,57.4336L383.4336,57.4336L383.4336,59.168L390.7402,59.168L390.7402,60.375ZM378.3008,63.3574Q380.6094,64.5586,381.6172,65.1797L380.8789,66.3164Q379.0391,65.2148,377.6328,64.4531L378.3008,63.3574ZM397.84180000000003,59.3379Q397.84180000000003,61.875,396.9922,64.02539999999999Q396.1484,66.17580000000001,394.6719,67.6699L393.2188,67.6699Q394.6719,65.9062,395.457,63.8672Q396.2422,61.8223,396.2422,59.3379Q396.2422,56.8359,395.457,54.7852Q394.6719,52.7285,393.2188,51L394.6719,51Q396.1484,52.4941,396.9922,54.6387Q397.84180000000003,56.7773,397.84180000000003,59.3379Z" fill="#DDDDDD" fill-opacity="1"/></g><path d="M285,0L288.88889,0L288.88889,1.5L285,1.5M292.77778,0L300.5556,0L300.5556,1.5L292.77778,1.5M304.4444,0L312.2222,0L312.2222,1.5L304.4444,1.5M316.1111,0L323.8889,0L323.8889,1.5L316.1111,1.5M327.7778,0L335.5556,0L335.5556,1.5L327.7778,1.5M339.4444,0L347.2222,0L347.2222,1.5L339.4444,1.5M351.11109999999996,0L358.88890000000004,0L358.88890000000004,1.5L351.11109999999996,1.5M362.7778,0L370.5556,0L370.5556,1.5L362.7778,1.5M374.4444,0L382.2222,0L382.2222,1.5L374.4444,1.5M386.111,0L393.889,0L393.889,1.5L386.111,1.5M397.778,0L405.556,0L405.556,1.5L397.778,1.5M409.444,0L417.222,0L417.222,1.5L409.444,1.5M421.111,0L428.889,0L428.889,1.5L421.111,1.5M432.778,0L440.55600000000004,0L440.55600000000004,1.5L432.778,1.5M444.44399999999996,0L452.222,0L452.222,1.5L444.44399999999996,1.5M456.111,0L460,0L460,1.5L456.111,1.5M460,0L460,4L458.5,4L458.5,0M460,8L460,16L458.5,16L458.5,8M460,20L460,28L458.5,28L458.5,20M460,32L460,40L458.5,40L458.5,32M460,44L460,52L458.5,52L458.5,44M460,56L460,64L458.5,64L458.5,56M460,68L460,76L458.5,76L458.5,68M460,80L460,88L458.5,88L458.5,80M460,92L460,96L458.5,96L458.5,92M285,96L285,92L286.5,92L286.5,96M285,88L285,80L286.5,80L286.5,88M285,76L285,68L286.5,68L286.5,76M285,64L285,56L286.5,56L286.5,64M285,52L285,44L286.5,44L286.5,52M285,40L285,32L286.5,32L286.5,40M285,28L285,20L286.5,20L286.5,28M285,16L285,8L286.5,8L286.5,16M285,4L285,0L286.5,0L286.5,4" fill="#DDDDDD" fill-opacity="1"/></g></g></svg>